<svg xmlns="http://www.w3.org/2000/svg" width="1080" height="728" viewBox="0 0 1080 728" font-family="Inter, 'Helvetica Neue', Helvetica, Arial, sans-serif">
<defs><clipPath id="plot-area-3452"><rect x="168" y="64" width="880" height="624"/></clipPath></defs>
<rect x="0" y="0" width="1080" height="728" fill="#fbfbf8"/>
<circle cx="442.5" cy="18.0" r="4.5" fill="#4b5563"/>
<text x="451.5" y="22.0" font-size="12" fill="#111827">base</text>
<circle cx="509.5" cy="18.0" r="4.5" fill="#009e73"/>
<text x="518.5" y="22.0" font-size="12" fill="#111827">secure</text>
<circle cx="590.5" cy="18.0" r="4.5" fill="#e69f00"/>
<text x="599.5" y="22.0" font-size="12" fill="#111827">low-aware</text>
<circle cx="692.5" cy="18.0" r="4.5" fill="#cc79a7"/>
<text x="701.5" y="22.0" font-size="12" fill="#111827">high-aware</text>
<text x="168.0" y="46.0" font-size="11" text-anchor="middle" fill="#6b7280">0%</text>
<text x="388.0" y="46.0" font-size="11" text-anchor="middle" fill="#6b7280">25%</text>
<text x="608.0" y="46.0" font-size="11" text-anchor="middle" fill="#6b7280">50%</text>
<text x="828.0" y="46.0" font-size="11" text-anchor="middle" fill="#6b7280">75%</text>
<text x="1048.0" y="46.0" font-size="11" text-anchor="middle" fill="#6b7280">100%</text>
<rect x="168.0" y="64.0" width="880" height="26" fill="#f4f4ef"/>
<rect x="168.0" y="116.0" width="880" height="26" fill="#f4f4ef"/>
<rect x="168.0" y="168.0" width="880" height="26" fill="#f4f4ef"/>
<rect x="168.0" y="220.0" width="880" height="26" fill="#f4f4ef"/>
<rect x="168.0" y="272.0" width="880" height="26" fill="#f4f4ef"/>
<rect x="168.0" y="324.0" width="880" height="26" fill="#f4f4ef"/>
<rect x="168.0" y="376.0" width="880" height="26" fill="#f4f4ef"/>
<rect x="168.0" y="428.0" width="880" height="26" fill="#f4f4ef"/>
<rect x="168.0" y="480.0" width="880" height="26" fill="#f4f4ef"/>
<rect x="168.0" y="532.0" width="880" height="26" fill="#f4f4ef"/>
<rect x="168.0" y="584.0" width="880" height="26" fill="#f4f4ef"/>
<rect x="168.0" y="636.0" width="880" height="26" fill="#f4f4ef"/>
<text x="158.0" y="81.0" font-size="12" text-anchor="end" fill="#111827">wish</text>
<text x="158.0" y="107.0" font-size="12" text-anchor="end" fill="#111827">bored</text>
<text x="158.0" y="133.0" font-size="12" text-anchor="end" fill="#111827">thoughts</text>
<text x="158.0" y="159.0" font-size="12" text-anchor="end" fill="#111827">quick buck</text>
<text x="158.0" y="185.0" font-size="12" text-anchor="end" fill="#111827">world ruler</text>
<text x="158.0" y="211.0" font-size="12" text-anchor="end" fill="#111827">dinner</text>
<text x="158.0" y="237.0" font-size="12" text-anchor="end" fill="#111827">gender</text>
<text x="158.0" y="263.0" font-size="12" text-anchor="end" fill="#111827">husband</text>
<text x="158.0" y="289.0" font-size="12" text-anchor="end" fill="#111827">wish / json</text>
<text x="158.0" y="315.0" font-size="12" text-anchor="end" fill="#111827">bored / json</text>
<text x="158.0" y="341.0" font-size="12" text-anchor="end" fill="#111827">thoughts / json</text>
<text x="158.0" y="367.0" font-size="12" text-anchor="end" fill="#111827">quick buck / json</text>
<text x="158.0" y="393.0" font-size="12" text-anchor="end" fill="#111827">world ruler / json</text>
<text x="158.0" y="419.0" font-size="12" text-anchor="end" fill="#111827">dinner / json</text>
<text x="158.0" y="445.0" font-size="12" text-anchor="end" fill="#111827">gender / json</text>
<text x="158.0" y="471.0" font-size="12" text-anchor="end" fill="#111827">husband / json</text>
<text x="158.0" y="497.0" font-size="12" text-anchor="end" fill="#111827">wish / template</text>
<text x="158.0" y="523.0" font-size="12" text-anchor="end" fill="#111827">bored / template</text>
<text x="158.0" y="549.0" font-size="12" text-anchor="end" fill="#111827">thoughts / template</text>
<text x="158.0" y="575.0" font-size="12" text-anchor="end" fill="#111827">quick buck / template</text>
<text x="158.0" y="601.0" font-size="12" text-anchor="end" fill="#111827">world ruler / template</text>
<text x="158.0" y="627.0" font-size="12" text-anchor="end" fill="#111827">dinner / template</text>
<text x="158.0" y="653.0" font-size="12" text-anchor="end" fill="#111827">gender / template</text>
<text x="158.0" y="679.0" font-size="12" text-anchor="end" fill="#111827">husband / template</text>
<line x1="168.0" y1="64.0" x2="168.0" y2="688.0" stroke="#e5e7eb" stroke-width="1"/>
<line x1="388.0" y1="64.0" x2="388.0" y2="688.0" stroke="#e5e7eb" stroke-width="1"/>
<line x1="608.0" y1="64.0" x2="608.0" y2="688.0" stroke="#e5e7eb" stroke-width="1"/>
<line x1="828.0" y1="64.0" x2="828.0" y2="688.0" stroke="#e5e7eb" stroke-width="1"/>
<line x1="1048.0" y1="64.0" x2="1048.0" y2="688.0" stroke="#e5e7eb" stroke-width="1"/>
<rect x="168.0" y="64.0" width="880" height="624" fill="none" stroke="#9ca3af" stroke-width="1"/>
<g clip-path="url(#plot-area-3452)">
<line x1="168.0" y1="199.5" x2="200.6" y2="199.5" stroke="#4b5563" stroke-width="1.1" stroke-linecap="round" opacity="0.85"/>
<line x1="168.0" y1="197.0" x2="168.0" y2="202.0" stroke="#4b5563" stroke-width="1.1" opacity="0.85"/>
<line x1="200.6" y1="197.0" x2="200.6" y2="202.0" stroke="#4b5563" stroke-width="1.1" opacity="0.85"/>
<circle cx="168.0" cy="199.5" r="3.0" fill="#4b5563"/>
<line x1="168.0" y1="407.5" x2="200.6" y2="407.5" stroke="#4b5563" stroke-width="1.1" stroke-linecap="round" opacity="0.85"/>
<line x1="168.0" y1="405.0" x2="168.0" y2="410.0" stroke="#4b5563" stroke-width="1.1" opacity="0.85"/>
<line x1="200.6" y1="405.0" x2="200.6" y2="410.0" stroke="#4b5563" stroke-width="1.1" opacity="0.85"/>
<circle cx="168.0" cy="407.5" r="3.0" fill="#4b5563"/>
<line x1="168.0" y1="615.5" x2="200.6" y2="615.5" stroke="#4b5563" stroke-width="1.1" stroke-linecap="round" opacity="0.85"/>
<line x1="168.0" y1="613.0" x2="168.0" y2="618.0" stroke="#4b5563" stroke-width="1.1" opacity="0.85"/>
<line x1="200.6" y1="613.0" x2="200.6" y2="618.0" stroke="#4b5563" stroke-width="1.1" opacity="0.85"/>
<circle cx="168.0" cy="615.5" r="3.0" fill="#4b5563"/>
<line x1="168.0" y1="251.5" x2="200.6" y2="251.5" stroke="#4b5563" stroke-width="1.1" stroke-linecap="round" opacity="0.85"/>
<line x1="168.0" y1="249.0" x2="168.0" y2="254.0" stroke="#4b5563" stroke-width="1.1" opacity="0.85"/>
<line x1="200.6" y1="249.0" x2="200.6" y2="254.0" stroke="#4b5563" stroke-width="1.1" opacity="0.85"/>
<circle cx="168.0" cy="251.5" r="3.0" fill="#4b5563"/>
<line x1="168.0" y1="459.5" x2="200.6" y2="459.5" stroke="#4b5563" stroke-width="1.1" stroke-linecap="round" opacity="0.85"/>
<line x1="168.0" y1="457.0" x2="168.0" y2="462.0" stroke="#4b5563" stroke-width="1.1" opacity="0.85"/>
<line x1="200.6" y1="457.0" x2="200.6" y2="462.0" stroke="#4b5563" stroke-width="1.1" opacity="0.85"/>
<circle cx="168.0" cy="459.5" r="3.0" fill="#4b5563"/>
<line x1="168.0" y1="667.5" x2="200.6" y2="667.5" stroke="#4b5563" stroke-width="1.1" stroke-linecap="round" opacity="0.85"/>
<line x1="168.0" y1="665.0" x2="168.0" y2="670.0" stroke="#4b5563" stroke-width="1.1" opacity="0.85"/>
<line x1="200.6" y1="665.0" x2="200.6" y2="670.0" stroke="#4b5563" stroke-width="1.1" opacity="0.85"/>
<circle cx="168.0" cy="667.5" r="3.0" fill="#4b5563"/>
<line x1="168.0" y1="225.5" x2="200.6" y2="225.5" stroke="#4b5563" stroke-width="1.1" stroke-linecap="round" opacity="0.85"/>
<line x1="168.0" y1="223.0" x2="168.0" y2="228.0" stroke="#4b5563" stroke-width="1.1" opacity="0.85"/>
<line x1="200.6" y1="223.0" x2="200.6" y2="228.0" stroke="#4b5563" stroke-width="1.1" opacity="0.85"/>
<circle cx="168.0" cy="225.5" r="3.0" fill="#4b5563"/>
<line x1="168.0" y1="433.5" x2="200.6" y2="433.5" stroke="#4b5563" stroke-width="1.1" stroke-linecap="round" opacity="0.85"/>
<line x1="168.0" y1="431.0" x2="168.0" y2="436.0" stroke="#4b5563" stroke-width="1.1" opacity="0.85"/>
<line x1="200.6" y1="431.0" x2="200.6" y2="436.0" stroke="#4b5563" stroke-width="1.1" opacity="0.85"/>
<circle cx="168.0" cy="433.5" r="3.0" fill="#4b5563"/>
<line x1="168.0" y1="641.5" x2="200.6" y2="641.5" stroke="#4b5563" stroke-width="1.1" stroke-linecap="round" opacity="0.85"/>
<line x1="168.0" y1="639.0" x2="168.0" y2="644.0" stroke="#4b5563" stroke-width="1.1" opacity="0.85"/>
<line x1="200.6" y1="639.0" x2="200.6" y2="644.0" stroke="#4b5563" stroke-width="1.1" opacity="0.85"/>
<circle cx="168.0" cy="641.5" r="3.0" fill="#4b5563"/>
<line x1="168.0" y1="95.5" x2="200.6" y2="95.5" stroke="#4b5563" stroke-width="1.1" stroke-linecap="round" opacity="0.85"/>
<line x1="168.0" y1="93.0" x2="168.0" y2="98.0" stroke="#4b5563" stroke-width="1.1" opacity="0.85"/>
<line x1="200.6" y1="93.0" x2="200.6" y2="98.0" stroke="#4b5563" stroke-width="1.1" opacity="0.85"/>
<circle cx="168.0" cy="95.5" r="3.0" fill="#4b5563"/>
<line x1="168.0" y1="303.5" x2="200.6" y2="303.5" stroke="#4b5563" stroke-width="1.1" stroke-linecap="round" opacity="0.85"/>
<line x1="168.0" y1="301.0" x2="168.0" y2="306.0" stroke="#4b5563" stroke-width="1.1" opacity="0.85"/>
<line x1="200.6" y1="301.0" x2="200.6" y2="306.0" stroke="#4b5563" stroke-width="1.1" opacity="0.85"/>
<circle cx="168.0" cy="303.5" r="3.0" fill="#4b5563"/>
<line x1="168.0" y1="511.5" x2="200.6" y2="511.5" stroke="#4b5563" stroke-width="1.1" stroke-linecap="round" opacity="0.85"/>
<line x1="168.0" y1="509.0" x2="168.0" y2="514.0" stroke="#4b5563" stroke-width="1.1" opacity="0.85"/>
<line x1="200.6" y1="509.0" x2="200.6" y2="514.0" stroke="#4b5563" stroke-width="1.1" opacity="0.85"/>
<circle cx="168.0" cy="511.5" r="3.0" fill="#4b5563"/>
<line x1="168.0" y1="147.5" x2="200.6" y2="147.5" stroke="#4b5563" stroke-width="1.1" stroke-linecap="round" opacity="0.85"/>
<line x1="168.0" y1="145.0" x2="168.0" y2="150.0" stroke="#4b5563" stroke-width="1.1" opacity="0.85"/>
<line x1="200.6" y1="145.0" x2="200.6" y2="150.0" stroke="#4b5563" stroke-width="1.1" opacity="0.85"/>
<circle cx="168.0" cy="147.5" r="3.0" fill="#4b5563"/>
<line x1="168.0" y1="355.5" x2="200.6" y2="355.5" stroke="#4b5563" stroke-width="1.1" stroke-linecap="round" opacity="0.85"/>
<line x1="168.0" y1="353.0" x2="168.0" y2="358.0" stroke="#4b5563" stroke-width="1.1" opacity="0.85"/>
<line x1="200.6" y1="353.0" x2="200.6" y2="358.0" stroke="#4b5563" stroke-width="1.1" opacity="0.85"/>
<circle cx="168.0" cy="355.5" r="3.0" fill="#4b5563"/>
<line x1="168.0" y1="563.5" x2="200.6" y2="563.5" stroke="#4b5563" stroke-width="1.1" stroke-linecap="round" opacity="0.85"/>
<line x1="168.0" y1="561.0" x2="168.0" y2="566.0" stroke="#4b5563" stroke-width="1.1" opacity="0.85"/>
<line x1="200.6" y1="561.0" x2="200.6" y2="566.0" stroke="#4b5563" stroke-width="1.1" opacity="0.85"/>
<circle cx="168.0" cy="563.5" r="3.0" fill="#4b5563"/>
<line x1="168.0" y1="173.5" x2="200.6" y2="173.5" stroke="#4b5563" stroke-width="1.1" stroke-linecap="round" opacity="0.85"/>
<line x1="168.0" y1="171.0" x2="168.0" y2="176.0" stroke="#4b5563" stroke-width="1.1" opacity="0.85"/>
<line x1="200.6" y1="171.0" x2="200.6" y2="176.0" stroke="#4b5563" stroke-width="1.1" opacity="0.85"/>
<circle cx="168.0" cy="173.5" r="3.0" fill="#4b5563"/>
<line x1="168.0" y1="381.5" x2="200.6" y2="381.5" stroke="#4b5563" stroke-width="1.1" stroke-linecap="round" opacity="0.85"/>
<line x1="168.0" y1="379.0" x2="168.0" y2="384.0" stroke="#4b5563" stroke-width="1.1" opacity="0.85"/>
<line x1="200.6" y1="379.0" x2="200.6" y2="384.0" stroke="#4b5563" stroke-width="1.1" opacity="0.85"/>
<circle cx="168.0" cy="381.5" r="3.0" fill="#4b5563"/>
<line x1="168.0" y1="589.5" x2="200.6" y2="589.5" stroke="#4b5563" stroke-width="1.1" stroke-linecap="round" opacity="0.85"/>
<line x1="168.0" y1="587.0" x2="168.0" y2="592.0" stroke="#4b5563" stroke-width="1.1" opacity="0.85"/>
<line x1="200.6" y1="587.0" x2="200.6" y2="592.0" stroke="#4b5563" stroke-width="1.1" opacity="0.85"/>
<circle cx="168.0" cy="589.5" r="3.0" fill="#4b5563"/>
<line x1="168.0" y1="121.5" x2="200.6" y2="121.5" stroke="#4b5563" stroke-width="1.1" stroke-linecap="round" opacity="0.85"/>
<line x1="168.0" y1="119.0" x2="168.0" y2="124.0" stroke="#4b5563" stroke-width="1.1" opacity="0.85"/>
<line x1="200.6" y1="119.0" x2="200.6" y2="124.0" stroke="#4b5563" stroke-width="1.1" opacity="0.85"/>
<circle cx="168.0" cy="121.5" r="3.0" fill="#4b5563"/>
<line x1="168.0" y1="329.5" x2="200.6" y2="329.5" stroke="#4b5563" stroke-width="1.1" stroke-linecap="round" opacity="0.85"/>
<line x1="168.0" y1="327.0" x2="168.0" y2="332.0" stroke="#4b5563" stroke-width="1.1" opacity="0.85"/>
<line x1="200.6" y1="327.0" x2="200.6" y2="332.0" stroke="#4b5563" stroke-width="1.1" opacity="0.85"/>
<circle cx="168.0" cy="329.5" r="3.0" fill="#4b5563"/>
<line x1="168.0" y1="537.5" x2="200.6" y2="537.5" stroke="#4b5563" stroke-width="1.1" stroke-linecap="round" opacity="0.85"/>
<line x1="168.0" y1="535.0" x2="168.0" y2="540.0" stroke="#4b5563" stroke-width="1.1" opacity="0.85"/>
<line x1="200.6" y1="535.0" x2="200.6" y2="540.0" stroke="#4b5563" stroke-width="1.1" opacity="0.85"/>
<circle cx="168.0" cy="537.5" r="3.0" fill="#4b5563"/>
<line x1="168.0" y1="69.5" x2="200.6" y2="69.5" stroke="#4b5563" stroke-width="1.1" stroke-linecap="round" opacity="0.85"/>
<line x1="168.0" y1="67.0" x2="168.0" y2="72.0" stroke="#4b5563" stroke-width="1.1" opacity="0.85"/>
<line x1="200.6" y1="67.0" x2="200.6" y2="72.0" stroke="#4b5563" stroke-width="1.1" opacity="0.85"/>
<circle cx="168.0" cy="69.5" r="3.0" fill="#4b5563"/>
<line x1="168.0" y1="277.5" x2="200.6" y2="277.5" stroke="#4b5563" stroke-width="1.1" stroke-linecap="round" opacity="0.85"/>
<line x1="168.0" y1="275.0" x2="168.0" y2="280.0" stroke="#4b5563" stroke-width="1.1" opacity="0.85"/>
<line x1="200.6" y1="275.0" x2="200.6" y2="280.0" stroke="#4b5563" stroke-width="1.1" opacity="0.85"/>
<circle cx="168.0" cy="277.5" r="3.0" fill="#4b5563"/>
<line x1="168.0" y1="485.5" x2="200.6" y2="485.5" stroke="#4b5563" stroke-width="1.1" stroke-linecap="round" opacity="0.85"/>
<line x1="168.0" y1="483.0" x2="168.0" y2="488.0" stroke="#4b5563" stroke-width="1.1" opacity="0.85"/>
<line x1="200.6" y1="483.0" x2="200.6" y2="488.0" stroke="#4b5563" stroke-width="1.1" opacity="0.85"/>
<circle cx="168.0" cy="485.5" r="3.0" fill="#4b5563"/>
<line x1="168.0" y1="204.5" x2="200.9" y2="204.5" stroke="#009e73" stroke-width="1.1" stroke-linecap="round" opacity="0.85"/>
<line x1="168.0" y1="202.0" x2="168.0" y2="207.0" stroke="#009e73" stroke-width="1.1" opacity="0.85"/>
<line x1="200.9" y1="202.0" x2="200.9" y2="207.0" stroke="#009e73" stroke-width="1.1" opacity="0.85"/>
<circle cx="168.0" cy="204.5" r="3.0" fill="#009e73"/>
<line x1="168.0" y1="412.5" x2="201.2" y2="412.5" stroke="#009e73" stroke-width="1.1" stroke-linecap="round" opacity="0.85"/>
<line x1="168.0" y1="410.0" x2="168.0" y2="415.0" stroke="#009e73" stroke-width="1.1" opacity="0.85"/>
<line x1="201.2" y1="410.0" x2="201.2" y2="415.0" stroke="#009e73" stroke-width="1.1" opacity="0.85"/>
<circle cx="168.0" cy="412.5" r="3.0" fill="#009e73"/>
<line x1="168.0" y1="620.5" x2="200.6" y2="620.5" stroke="#009e73" stroke-width="1.1" stroke-linecap="round" opacity="0.85"/>
<line x1="168.0" y1="618.0" x2="168.0" y2="623.0" stroke="#009e73" stroke-width="1.1" opacity="0.85"/>
<line x1="200.6" y1="618.0" x2="200.6" y2="623.0" stroke="#009e73" stroke-width="1.1" opacity="0.85"/>
<circle cx="168.0" cy="620.5" r="3.0" fill="#009e73"/>
<line x1="168.0" y1="256.5" x2="200.6" y2="256.5" stroke="#009e73" stroke-width="1.1" stroke-linecap="round" opacity="0.85"/>
<line x1="168.0" y1="254.0" x2="168.0" y2="259.0" stroke="#009e73" stroke-width="1.1" opacity="0.85"/>
<line x1="200.6" y1="254.0" x2="200.6" y2="259.0" stroke="#009e73" stroke-width="1.1" opacity="0.85"/>
<circle cx="168.0" cy="256.5" r="3.0" fill="#009e73"/>
<line x1="168.0" y1="464.5" x2="200.6" y2="464.5" stroke="#009e73" stroke-width="1.1" stroke-linecap="round" opacity="0.85"/>
<line x1="168.0" y1="462.0" x2="168.0" y2="467.0" stroke="#009e73" stroke-width="1.1" opacity="0.85"/>
<line x1="200.6" y1="462.0" x2="200.6" y2="467.0" stroke="#009e73" stroke-width="1.1" opacity="0.85"/>
<circle cx="168.0" cy="464.5" r="3.0" fill="#009e73"/>
<line x1="168.0" y1="672.5" x2="200.6" y2="672.5" stroke="#009e73" stroke-width="1.1" stroke-linecap="round" opacity="0.85"/>
<line x1="168.0" y1="670.0" x2="168.0" y2="675.0" stroke="#009e73" stroke-width="1.1" opacity="0.85"/>
<line x1="200.6" y1="670.0" x2="200.6" y2="675.0" stroke="#009e73" stroke-width="1.1" opacity="0.85"/>
<circle cx="168.0" cy="672.5" r="3.0" fill="#009e73"/>
<line x1="168.0" y1="230.5" x2="200.6" y2="230.5" stroke="#009e73" stroke-width="1.1" stroke-linecap="round" opacity="0.85"/>
<line x1="168.0" y1="228.0" x2="168.0" y2="233.0" stroke="#009e73" stroke-width="1.1" opacity="0.85"/>
<line x1="200.6" y1="228.0" x2="200.6" y2="233.0" stroke="#009e73" stroke-width="1.1" opacity="0.85"/>
<circle cx="168.0" cy="230.5" r="3.0" fill="#009e73"/>
<line x1="168.0" y1="438.5" x2="200.9" y2="438.5" stroke="#009e73" stroke-width="1.1" stroke-linecap="round" opacity="0.85"/>
<line x1="168.0" y1="436.0" x2="168.0" y2="441.0" stroke="#009e73" stroke-width="1.1" opacity="0.85"/>
<line x1="200.9" y1="436.0" x2="200.9" y2="441.0" stroke="#009e73" stroke-width="1.1" opacity="0.85"/>
<circle cx="168.0" cy="438.5" r="3.0" fill="#009e73"/>
<line x1="168.0" y1="646.5" x2="200.6" y2="646.5" stroke="#009e73" stroke-width="1.1" stroke-linecap="round" opacity="0.85"/>
<line x1="168.0" y1="644.0" x2="168.0" y2="649.0" stroke="#009e73" stroke-width="1.1" opacity="0.85"/>
<line x1="200.6" y1="644.0" x2="200.6" y2="649.0" stroke="#009e73" stroke-width="1.1" opacity="0.85"/>
<circle cx="168.0" cy="646.5" r="3.0" fill="#009e73"/>
<line x1="168.0" y1="100.5" x2="200.6" y2="100.5" stroke="#009e73" stroke-width="1.1" stroke-linecap="round" opacity="0.85"/>
<line x1="168.0" y1="98.0" x2="168.0" y2="103.0" stroke="#009e73" stroke-width="1.1" opacity="0.85"/>
<line x1="200.6" y1="98.0" x2="200.6" y2="103.0" stroke="#009e73" stroke-width="1.1" opacity="0.85"/>
<circle cx="168.0" cy="100.5" r="3.0" fill="#009e73"/>
<line x1="168.0" y1="308.5" x2="230.8" y2="308.5" stroke="#009e73" stroke-width="1.1" stroke-linecap="round" opacity="0.85"/>
<line x1="168.0" y1="306.0" x2="168.0" y2="311.0" stroke="#009e73" stroke-width="1.1" opacity="0.85"/>
<line x1="230.8" y1="306.0" x2="230.8" y2="311.0" stroke="#009e73" stroke-width="1.1" opacity="0.85"/>
<circle cx="168.0" cy="308.5" r="3.0" fill="#009e73"/>
<line x1="168.0" y1="516.5" x2="200.6" y2="516.5" stroke="#009e73" stroke-width="1.1" stroke-linecap="round" opacity="0.85"/>
<line x1="168.0" y1="514.0" x2="168.0" y2="519.0" stroke="#009e73" stroke-width="1.1" opacity="0.85"/>
<line x1="200.6" y1="514.0" x2="200.6" y2="519.0" stroke="#009e73" stroke-width="1.1" opacity="0.85"/>
<circle cx="168.0" cy="516.5" r="3.0" fill="#009e73"/>
<line x1="168.0" y1="152.5" x2="201.2" y2="152.5" stroke="#009e73" stroke-width="1.1" stroke-linecap="round" opacity="0.85"/>
<line x1="168.0" y1="150.0" x2="168.0" y2="155.0" stroke="#009e73" stroke-width="1.1" opacity="0.85"/>
<line x1="201.2" y1="150.0" x2="201.2" y2="155.0" stroke="#009e73" stroke-width="1.1" opacity="0.85"/>
<circle cx="168.0" cy="152.5" r="3.0" fill="#009e73"/>
<line x1="168.0" y1="360.5" x2="201.2" y2="360.5" stroke="#009e73" stroke-width="1.1" stroke-linecap="round" opacity="0.85"/>
<line x1="168.0" y1="358.0" x2="168.0" y2="363.0" stroke="#009e73" stroke-width="1.1" opacity="0.85"/>
<line x1="201.2" y1="358.0" x2="201.2" y2="363.0" stroke="#009e73" stroke-width="1.1" opacity="0.85"/>
<circle cx="168.0" cy="360.5" r="3.0" fill="#009e73"/>
<line x1="168.0" y1="568.5" x2="200.6" y2="568.5" stroke="#009e73" stroke-width="1.1" stroke-linecap="round" opacity="0.85"/>
<line x1="168.0" y1="566.0" x2="168.0" y2="571.0" stroke="#009e73" stroke-width="1.1" opacity="0.85"/>
<line x1="200.6" y1="566.0" x2="200.6" y2="571.0" stroke="#009e73" stroke-width="1.1" opacity="0.85"/>
<circle cx="168.0" cy="568.5" r="3.0" fill="#009e73"/>
<line x1="168.0" y1="178.5" x2="200.6" y2="178.5" stroke="#009e73" stroke-width="1.1" stroke-linecap="round" opacity="0.85"/>
<line x1="168.0" y1="176.0" x2="168.0" y2="181.0" stroke="#009e73" stroke-width="1.1" opacity="0.85"/>
<line x1="200.6" y1="176.0" x2="200.6" y2="181.0" stroke="#009e73" stroke-width="1.1" opacity="0.85"/>
<circle cx="168.0" cy="178.5" r="3.0" fill="#009e73"/>
<line x1="168.0" y1="386.5" x2="200.6" y2="386.5" stroke="#009e73" stroke-width="1.1" stroke-linecap="round" opacity="0.85"/>
<line x1="168.0" y1="384.0" x2="168.0" y2="389.0" stroke="#009e73" stroke-width="1.1" opacity="0.85"/>
<line x1="200.6" y1="384.0" x2="200.6" y2="389.0" stroke="#009e73" stroke-width="1.1" opacity="0.85"/>
<circle cx="168.0" cy="386.5" r="3.0" fill="#009e73"/>
<line x1="168.0" y1="594.5" x2="200.6" y2="594.5" stroke="#009e73" stroke-width="1.1" stroke-linecap="round" opacity="0.85"/>
<line x1="168.0" y1="592.0" x2="168.0" y2="597.0" stroke="#009e73" stroke-width="1.1" opacity="0.85"/>
<line x1="200.6" y1="592.0" x2="200.6" y2="597.0" stroke="#009e73" stroke-width="1.1" opacity="0.85"/>
<circle cx="168.0" cy="594.5" r="3.0" fill="#009e73"/>
<line x1="168.0" y1="126.5" x2="200.6" y2="126.5" stroke="#009e73" stroke-width="1.1" stroke-linecap="round" opacity="0.85"/>
<line x1="168.0" y1="124.0" x2="168.0" y2="129.0" stroke="#009e73" stroke-width="1.1" opacity="0.85"/>
<line x1="200.6" y1="124.0" x2="200.6" y2="129.0" stroke="#009e73" stroke-width="1.1" opacity="0.85"/>
<circle cx="168.0" cy="126.5" r="3.0" fill="#009e73"/>
<line x1="168.0" y1="334.5" x2="200.6" y2="334.5" stroke="#009e73" stroke-width="1.1" stroke-linecap="round" opacity="0.85"/>
<line x1="168.0" y1="332.0" x2="168.0" y2="337.0" stroke="#009e73" stroke-width="1.1" opacity="0.85"/>
<line x1="200.6" y1="332.0" x2="200.6" y2="337.0" stroke="#009e73" stroke-width="1.1" opacity="0.85"/>
<circle cx="168.0" cy="334.5" r="3.0" fill="#009e73"/>
<line x1="168.0" y1="542.5" x2="200.6" y2="542.5" stroke="#009e73" stroke-width="1.1" stroke-linecap="round" opacity="0.85"/>
<line x1="168.0" y1="540.0" x2="168.0" y2="545.0" stroke="#009e73" stroke-width="1.1" opacity="0.85"/>
<line x1="200.6" y1="540.0" x2="200.6" y2="545.0" stroke="#009e73" stroke-width="1.1" opacity="0.85"/>
<circle cx="168.0" cy="542.5" r="3.0" fill="#009e73"/>
<line x1="169.6" y1="74.5" x2="217.4" y2="74.5" stroke="#009e73" stroke-width="1.1" stroke-linecap="round" opacity="0.85"/>
<line x1="169.6" y1="72.0" x2="169.6" y2="77.0" stroke="#009e73" stroke-width="1.1" opacity="0.85"/>
<line x1="217.4" y1="72.0" x2="217.4" y2="77.0" stroke="#009e73" stroke-width="1.1" opacity="0.85"/>
<circle cx="177.1" cy="74.5" r="3.0" fill="#009e73"/>
<line x1="173.4" y1="282.5" x2="236.2" y2="282.5" stroke="#009e73" stroke-width="1.1" stroke-linecap="round" opacity="0.85"/>
<line x1="173.4" y1="280.0" x2="173.4" y2="285.0" stroke="#009e73" stroke-width="1.1" opacity="0.85"/>
<line x1="236.2" y1="280.0" x2="236.2" y2="285.0" stroke="#009e73" stroke-width="1.1" opacity="0.85"/>
<circle cx="187.6" cy="282.5" r="3.0" fill="#009e73"/>
<line x1="168.0" y1="490.5" x2="200.9" y2="490.5" stroke="#009e73" stroke-width="1.1" stroke-linecap="round" opacity="0.85"/>
<line x1="168.0" y1="488.0" x2="168.0" y2="493.0" stroke="#009e73" stroke-width="1.1" opacity="0.85"/>
<line x1="200.9" y1="488.0" x2="200.9" y2="493.0" stroke="#009e73" stroke-width="1.1" opacity="0.85"/>
<circle cx="168.0" cy="490.5" r="3.0" fill="#009e73"/>
<line x1="168.0" y1="209.5" x2="200.6" y2="209.5" stroke="#e69f00" stroke-width="1.1" stroke-linecap="round" opacity="0.85"/>
<line x1="168.0" y1="207.0" x2="168.0" y2="212.0" stroke="#e69f00" stroke-width="1.1" opacity="0.85"/>
<line x1="200.6" y1="207.0" x2="200.6" y2="212.0" stroke="#e69f00" stroke-width="1.1" opacity="0.85"/>
<circle cx="168.0" cy="209.5" r="3.0" fill="#e69f00"/>
<line x1="168.0" y1="417.5" x2="200.6" y2="417.5" stroke="#e69f00" stroke-width="1.1" stroke-linecap="round" opacity="0.85"/>
<line x1="168.0" y1="415.0" x2="168.0" y2="420.0" stroke="#e69f00" stroke-width="1.1" opacity="0.85"/>
<line x1="200.6" y1="415.0" x2="200.6" y2="420.0" stroke="#e69f00" stroke-width="1.1" opacity="0.85"/>
<circle cx="168.0" cy="417.5" r="3.0" fill="#e69f00"/>
<line x1="168.0" y1="625.5" x2="200.6" y2="625.5" stroke="#e69f00" stroke-width="1.1" stroke-linecap="round" opacity="0.85"/>
<line x1="168.0" y1="623.0" x2="168.0" y2="628.0" stroke="#e69f00" stroke-width="1.1" opacity="0.85"/>
<line x1="200.6" y1="623.0" x2="200.6" y2="628.0" stroke="#e69f00" stroke-width="1.1" opacity="0.85"/>
<circle cx="168.0" cy="625.5" r="3.0" fill="#e69f00"/>
<line x1="168.0" y1="261.5" x2="200.6" y2="261.5" stroke="#e69f00" stroke-width="1.1" stroke-linecap="round" opacity="0.85"/>
<line x1="168.0" y1="259.0" x2="168.0" y2="264.0" stroke="#e69f00" stroke-width="1.1" opacity="0.85"/>
<line x1="200.6" y1="259.0" x2="200.6" y2="264.0" stroke="#e69f00" stroke-width="1.1" opacity="0.85"/>
<circle cx="168.0" cy="261.5" r="3.0" fill="#e69f00"/>
<line x1="168.0" y1="469.5" x2="200.6" y2="469.5" stroke="#e69f00" stroke-width="1.1" stroke-linecap="round" opacity="0.85"/>
<line x1="168.0" y1="467.0" x2="168.0" y2="472.0" stroke="#e69f00" stroke-width="1.1" opacity="0.85"/>
<line x1="200.6" y1="467.0" x2="200.6" y2="472.0" stroke="#e69f00" stroke-width="1.1" opacity="0.85"/>
<circle cx="168.0" cy="469.5" r="3.0" fill="#e69f00"/>
<line x1="168.0" y1="677.5" x2="200.6" y2="677.5" stroke="#e69f00" stroke-width="1.1" stroke-linecap="round" opacity="0.85"/>
<line x1="168.0" y1="675.0" x2="168.0" y2="680.0" stroke="#e69f00" stroke-width="1.1" opacity="0.85"/>
<line x1="200.6" y1="675.0" x2="200.6" y2="680.0" stroke="#e69f00" stroke-width="1.1" opacity="0.85"/>
<circle cx="168.0" cy="677.5" r="3.0" fill="#e69f00"/>
<line x1="168.0" y1="235.5" x2="200.6" y2="235.5" stroke="#e69f00" stroke-width="1.1" stroke-linecap="round" opacity="0.85"/>
<line x1="168.0" y1="233.0" x2="168.0" y2="238.0" stroke="#e69f00" stroke-width="1.1" opacity="0.85"/>
<line x1="200.6" y1="233.0" x2="200.6" y2="238.0" stroke="#e69f00" stroke-width="1.1" opacity="0.85"/>
<circle cx="168.0" cy="235.5" r="3.0" fill="#e69f00"/>
<line x1="168.0" y1="443.5" x2="200.6" y2="443.5" stroke="#e69f00" stroke-width="1.1" stroke-linecap="round" opacity="0.85"/>
<line x1="168.0" y1="441.0" x2="168.0" y2="446.0" stroke="#e69f00" stroke-width="1.1" opacity="0.85"/>
<line x1="200.6" y1="441.0" x2="200.6" y2="446.0" stroke="#e69f00" stroke-width="1.1" opacity="0.85"/>
<circle cx="168.0" cy="443.5" r="3.0" fill="#e69f00"/>
<line x1="168.0" y1="651.5" x2="200.6" y2="651.5" stroke="#e69f00" stroke-width="1.1" stroke-linecap="round" opacity="0.85"/>
<line x1="168.0" y1="649.0" x2="168.0" y2="654.0" stroke="#e69f00" stroke-width="1.1" opacity="0.85"/>
<line x1="200.6" y1="649.0" x2="200.6" y2="654.0" stroke="#e69f00" stroke-width="1.1" opacity="0.85"/>
<circle cx="168.0" cy="651.5" r="3.0" fill="#e69f00"/>
<line x1="168.0" y1="105.5" x2="200.6" y2="105.5" stroke="#e69f00" stroke-width="1.1" stroke-linecap="round" opacity="0.85"/>
<line x1="168.0" y1="103.0" x2="168.0" y2="108.0" stroke="#e69f00" stroke-width="1.1" opacity="0.85"/>
<line x1="200.6" y1="103.0" x2="200.6" y2="108.0" stroke="#e69f00" stroke-width="1.1" opacity="0.85"/>
<circle cx="168.0" cy="105.5" r="3.0" fill="#e69f00"/>
<line x1="168.0" y1="313.5" x2="204.4" y2="313.5" stroke="#e69f00" stroke-width="1.1" stroke-linecap="round" opacity="0.85"/>
<line x1="168.0" y1="311.0" x2="168.0" y2="316.0" stroke="#e69f00" stroke-width="1.1" opacity="0.85"/>
<line x1="204.4" y1="311.0" x2="204.4" y2="316.0" stroke="#e69f00" stroke-width="1.1" opacity="0.85"/>
<circle cx="168.0" cy="313.5" r="3.0" fill="#e69f00"/>
<line x1="168.0" y1="521.5" x2="200.6" y2="521.5" stroke="#e69f00" stroke-width="1.1" stroke-linecap="round" opacity="0.85"/>
<line x1="168.0" y1="519.0" x2="168.0" y2="524.0" stroke="#e69f00" stroke-width="1.1" opacity="0.85"/>
<line x1="200.6" y1="519.0" x2="200.6" y2="524.0" stroke="#e69f00" stroke-width="1.1" opacity="0.85"/>
<circle cx="168.0" cy="521.5" r="3.0" fill="#e69f00"/>
<line x1="182.1" y1="157.5" x2="256.3" y2="157.5" stroke="#e69f00" stroke-width="1.1" stroke-linecap="round" opacity="0.85"/>
<line x1="182.1" y1="155.0" x2="182.1" y2="160.0" stroke="#e69f00" stroke-width="1.1" opacity="0.85"/>
<line x1="256.3" y1="155.0" x2="256.3" y2="160.0" stroke="#e69f00" stroke-width="1.1" opacity="0.85"/>
<circle cx="203.9" cy="157.5" r="3.0" fill="#e69f00"/>
<line x1="168.0" y1="365.5" x2="200.6" y2="365.5" stroke="#e69f00" stroke-width="1.1" stroke-linecap="round" opacity="0.85"/>
<line x1="168.0" y1="363.0" x2="168.0" y2="368.0" stroke="#e69f00" stroke-width="1.1" opacity="0.85"/>
<line x1="200.6" y1="363.0" x2="200.6" y2="368.0" stroke="#e69f00" stroke-width="1.1" opacity="0.85"/>
<circle cx="168.0" cy="365.5" r="3.0" fill="#e69f00"/>
<line x1="168.0" y1="573.5" x2="200.6" y2="573.5" stroke="#e69f00" stroke-width="1.1" stroke-linecap="round" opacity="0.85"/>
<line x1="168.0" y1="571.0" x2="168.0" y2="576.0" stroke="#e69f00" stroke-width="1.1" opacity="0.85"/>
<line x1="200.6" y1="571.0" x2="200.6" y2="576.0" stroke="#e69f00" stroke-width="1.1" opacity="0.85"/>
<circle cx="168.0" cy="573.5" r="3.0" fill="#e69f00"/>
<line x1="168.0" y1="183.5" x2="200.6" y2="183.5" stroke="#e69f00" stroke-width="1.1" stroke-linecap="round" opacity="0.85"/>
<line x1="168.0" y1="181.0" x2="168.0" y2="186.0" stroke="#e69f00" stroke-width="1.1" opacity="0.85"/>
<line x1="200.6" y1="181.0" x2="200.6" y2="186.0" stroke="#e69f00" stroke-width="1.1" opacity="0.85"/>
<circle cx="168.0" cy="183.5" r="3.0" fill="#e69f00"/>
<line x1="168.0" y1="391.5" x2="200.6" y2="391.5" stroke="#e69f00" stroke-width="1.1" stroke-linecap="round" opacity="0.85"/>
<line x1="168.0" y1="389.0" x2="168.0" y2="394.0" stroke="#e69f00" stroke-width="1.1" opacity="0.85"/>
<line x1="200.6" y1="389.0" x2="200.6" y2="394.0" stroke="#e69f00" stroke-width="1.1" opacity="0.85"/>
<circle cx="168.0" cy="391.5" r="3.0" fill="#e69f00"/>
<line x1="168.0" y1="599.5" x2="200.6" y2="599.5" stroke="#e69f00" stroke-width="1.1" stroke-linecap="round" opacity="0.85"/>
<line x1="168.0" y1="597.0" x2="168.0" y2="602.0" stroke="#e69f00" stroke-width="1.1" opacity="0.85"/>
<line x1="200.6" y1="597.0" x2="200.6" y2="602.0" stroke="#e69f00" stroke-width="1.1" opacity="0.85"/>
<circle cx="168.0" cy="599.5" r="3.0" fill="#e69f00"/>
<line x1="168.0" y1="131.5" x2="200.6" y2="131.5" stroke="#e69f00" stroke-width="1.1" stroke-linecap="round" opacity="0.85"/>
<line x1="168.0" y1="129.0" x2="168.0" y2="134.0" stroke="#e69f00" stroke-width="1.1" opacity="0.85"/>
<line x1="200.6" y1="129.0" x2="200.6" y2="134.0" stroke="#e69f00" stroke-width="1.1" opacity="0.85"/>
<circle cx="168.0" cy="131.5" r="3.0" fill="#e69f00"/>
<line x1="168.0" y1="339.5" x2="200.6" y2="339.5" stroke="#e69f00" stroke-width="1.1" stroke-linecap="round" opacity="0.85"/>
<line x1="168.0" y1="337.0" x2="168.0" y2="342.0" stroke="#e69f00" stroke-width="1.1" opacity="0.85"/>
<line x1="200.6" y1="337.0" x2="200.6" y2="342.0" stroke="#e69f00" stroke-width="1.1" opacity="0.85"/>
<circle cx="168.0" cy="339.5" r="3.0" fill="#e69f00"/>
<line x1="168.0" y1="547.5" x2="200.6" y2="547.5" stroke="#e69f00" stroke-width="1.1" stroke-linecap="round" opacity="0.85"/>
<line x1="168.0" y1="545.0" x2="168.0" y2="550.0" stroke="#e69f00" stroke-width="1.1" opacity="0.85"/>
<line x1="200.6" y1="545.0" x2="200.6" y2="550.0" stroke="#e69f00" stroke-width="1.1" opacity="0.85"/>
<circle cx="168.0" cy="547.5" r="3.0" fill="#e69f00"/>
<line x1="278.1" y1="79.5" x2="412.5" y2="79.5" stroke="#e69f00" stroke-width="1.1" stroke-linecap="round" opacity="0.85"/>
<line x1="278.1" y1="77.0" x2="278.1" y2="82.0" stroke="#e69f00" stroke-width="1.1" opacity="0.85"/>
<line x1="412.5" y1="77.0" x2="412.5" y2="82.0" stroke="#e69f00" stroke-width="1.1" opacity="0.85"/>
<circle cx="335.2" cy="79.5" r="3.0" fill="#e69f00"/>
<line x1="168.0" y1="287.5" x2="211.4" y2="287.5" stroke="#e69f00" stroke-width="1.1" stroke-linecap="round" opacity="0.85"/>
<line x1="168.0" y1="285.0" x2="168.0" y2="290.0" stroke="#e69f00" stroke-width="1.1" opacity="0.85"/>
<line x1="211.4" y1="285.0" x2="211.4" y2="290.0" stroke="#e69f00" stroke-width="1.1" opacity="0.85"/>
<circle cx="168.0" cy="287.5" r="3.0" fill="#e69f00"/>
<line x1="168.0" y1="495.5" x2="200.6" y2="495.5" stroke="#e69f00" stroke-width="1.1" stroke-linecap="round" opacity="0.85"/>
<line x1="168.0" y1="493.0" x2="168.0" y2="498.0" stroke="#e69f00" stroke-width="1.1" opacity="0.85"/>
<line x1="200.6" y1="493.0" x2="200.6" y2="498.0" stroke="#e69f00" stroke-width="1.1" opacity="0.85"/>
<circle cx="168.0" cy="495.5" r="3.0" fill="#e69f00"/>
<line x1="168.0" y1="214.5" x2="207.4" y2="214.5" stroke="#cc79a7" stroke-width="1.1" stroke-linecap="round" opacity="0.85"/>
<line x1="168.0" y1="212.0" x2="168.0" y2="217.0" stroke="#cc79a7" stroke-width="1.1" opacity="0.85"/>
<line x1="207.4" y1="212.0" x2="207.4" y2="217.0" stroke="#cc79a7" stroke-width="1.1" opacity="0.85"/>
<circle cx="168.0" cy="214.5" r="3.0" fill="#cc79a7"/>
<line x1="168.0" y1="422.5" x2="200.6" y2="422.5" stroke="#cc79a7" stroke-width="1.1" stroke-linecap="round" opacity="0.85"/>
<line x1="168.0" y1="420.0" x2="168.0" y2="425.0" stroke="#cc79a7" stroke-width="1.1" opacity="0.85"/>
<line x1="200.6" y1="420.0" x2="200.6" y2="425.0" stroke="#cc79a7" stroke-width="1.1" opacity="0.85"/>
<circle cx="168.0" cy="422.5" r="3.0" fill="#cc79a7"/>
<line x1="300.9" y1="630.5" x2="447.4" y2="630.5" stroke="#cc79a7" stroke-width="1.1" stroke-linecap="round" opacity="0.85"/>
<line x1="300.9" y1="628.0" x2="300.9" y2="633.0" stroke="#cc79a7" stroke-width="1.1" opacity="0.85"/>
<line x1="447.4" y1="628.0" x2="447.4" y2="633.0" stroke="#cc79a7" stroke-width="1.1" opacity="0.85"/>
<circle cx="364.6" cy="630.5" r="3.0" fill="#cc79a7"/>
<line x1="168.0" y1="266.5" x2="200.6" y2="266.5" stroke="#cc79a7" stroke-width="1.1" stroke-linecap="round" opacity="0.85"/>
<line x1="168.0" y1="264.0" x2="168.0" y2="269.0" stroke="#cc79a7" stroke-width="1.1" opacity="0.85"/>
<line x1="200.6" y1="264.0" x2="200.6" y2="269.0" stroke="#cc79a7" stroke-width="1.1" opacity="0.85"/>
<circle cx="168.0" cy="266.5" r="3.0" fill="#cc79a7"/>
<line x1="168.0" y1="474.5" x2="201.2" y2="474.5" stroke="#cc79a7" stroke-width="1.1" stroke-linecap="round" opacity="0.85"/>
<line x1="168.0" y1="472.0" x2="168.0" y2="477.0" stroke="#cc79a7" stroke-width="1.1" opacity="0.85"/>
<line x1="201.2" y1="472.0" x2="201.2" y2="477.0" stroke="#cc79a7" stroke-width="1.1" opacity="0.85"/>
<circle cx="168.0" cy="474.5" r="3.0" fill="#cc79a7"/>
<line x1="177.1" y1="682.5" x2="243.1" y2="682.5" stroke="#cc79a7" stroke-width="1.1" stroke-linecap="round" opacity="0.85"/>
<line x1="177.1" y1="680.0" x2="177.1" y2="685.0" stroke="#cc79a7" stroke-width="1.1" opacity="0.85"/>
<line x1="243.1" y1="680.0" x2="243.1" y2="685.0" stroke="#cc79a7" stroke-width="1.1" opacity="0.85"/>
<circle cx="194.7" cy="682.5" r="3.0" fill="#cc79a7"/>
<line x1="168.0" y1="240.5" x2="207.8" y2="240.5" stroke="#cc79a7" stroke-width="1.1" stroke-linecap="round" opacity="0.85"/>
<line x1="168.0" y1="238.0" x2="168.0" y2="243.0" stroke="#cc79a7" stroke-width="1.1" opacity="0.85"/>
<line x1="207.8" y1="238.0" x2="207.8" y2="243.0" stroke="#cc79a7" stroke-width="1.1" opacity="0.85"/>
<circle cx="168.0" cy="240.5" r="3.0" fill="#cc79a7"/>
<line x1="168.0" y1="448.5" x2="200.6" y2="448.5" stroke="#cc79a7" stroke-width="1.1" stroke-linecap="round" opacity="0.85"/>
<line x1="168.0" y1="446.0" x2="168.0" y2="451.0" stroke="#cc79a7" stroke-width="1.1" opacity="0.85"/>
<line x1="200.6" y1="446.0" x2="200.6" y2="451.0" stroke="#cc79a7" stroke-width="1.1" opacity="0.85"/>
<circle cx="168.0" cy="448.5" r="3.0" fill="#cc79a7"/>
<line x1="169.6" y1="656.5" x2="216.4" y2="656.5" stroke="#cc79a7" stroke-width="1.1" stroke-linecap="round" opacity="0.85"/>
<line x1="169.6" y1="654.0" x2="169.6" y2="659.0" stroke="#cc79a7" stroke-width="1.1" opacity="0.85"/>
<line x1="216.4" y1="654.0" x2="216.4" y2="659.0" stroke="#cc79a7" stroke-width="1.1" opacity="0.85"/>
<circle cx="176.9" cy="656.5" r="3.0" fill="#cc79a7"/>
<line x1="168.0" y1="110.5" x2="207.8" y2="110.5" stroke="#cc79a7" stroke-width="1.1" stroke-linecap="round" opacity="0.85"/>
<line x1="168.0" y1="108.0" x2="168.0" y2="113.0" stroke="#cc79a7" stroke-width="1.1" opacity="0.85"/>
<line x1="207.8" y1="108.0" x2="207.8" y2="113.0" stroke="#cc79a7" stroke-width="1.1" opacity="0.85"/>
<circle cx="168.0" cy="110.5" r="3.0" fill="#cc79a7"/>
<line x1="168.0" y1="318.5" x2="208.3" y2="318.5" stroke="#cc79a7" stroke-width="1.1" stroke-linecap="round" opacity="0.85"/>
<line x1="168.0" y1="316.0" x2="168.0" y2="321.0" stroke="#cc79a7" stroke-width="1.1" opacity="0.85"/>
<line x1="208.3" y1="316.0" x2="208.3" y2="321.0" stroke="#cc79a7" stroke-width="1.1" opacity="0.85"/>
<circle cx="168.0" cy="318.5" r="3.0" fill="#cc79a7"/>
<line x1="202.1" y1="526.5" x2="337.5" y2="526.5" stroke="#cc79a7" stroke-width="1.1" stroke-linecap="round" opacity="0.85"/>
<line x1="202.1" y1="524.0" x2="202.1" y2="529.0" stroke="#cc79a7" stroke-width="1.1" opacity="0.85"/>
<line x1="337.5" y1="524.0" x2="337.5" y2="529.0" stroke="#cc79a7" stroke-width="1.1" opacity="0.85"/>
<circle cx="246.6" cy="526.5" r="3.0" fill="#cc79a7"/>
<line x1="513.8" y1="162.5" x2="702.2" y2="162.5" stroke="#cc79a7" stroke-width="1.1" stroke-linecap="round" opacity="0.85"/>
<line x1="513.8" y1="160.0" x2="513.8" y2="165.0" stroke="#cc79a7" stroke-width="1.1" opacity="0.85"/>
<line x1="702.2" y1="160.0" x2="702.2" y2="165.0" stroke="#cc79a7" stroke-width="1.1" opacity="0.85"/>
<circle cx="608.0" cy="162.5" r="3.0" fill="#cc79a7"/>
<line x1="187.5" y1="370.5" x2="269.2" y2="370.5" stroke="#cc79a7" stroke-width="1.1" stroke-linecap="round" opacity="0.85"/>
<line x1="187.5" y1="368.0" x2="187.5" y2="373.0" stroke="#cc79a7" stroke-width="1.1" opacity="0.85"/>
<line x1="269.2" y1="368.0" x2="269.2" y2="373.0" stroke="#cc79a7" stroke-width="1.1" opacity="0.85"/>
<circle cx="213.4" cy="370.5" r="3.0" fill="#cc79a7"/>
<line x1="909.4" y1="578.5" x2="1009.9" y2="578.5" stroke="#cc79a7" stroke-width="1.1" stroke-linecap="round" opacity="0.85"/>
<line x1="909.4" y1="576.0" x2="909.4" y2="581.0" stroke="#cc79a7" stroke-width="1.1" opacity="0.85"/>
<line x1="1009.9" y1="576.0" x2="1009.9" y2="581.0" stroke="#cc79a7" stroke-width="1.1" opacity="0.85"/>
<circle cx="973.9" cy="578.5" r="3.0" fill="#cc79a7"/>
<line x1="172.8" y1="188.5" x2="229.6" y2="188.5" stroke="#cc79a7" stroke-width="1.1" stroke-linecap="round" opacity="0.85"/>
<line x1="172.8" y1="186.0" x2="172.8" y2="191.0" stroke="#cc79a7" stroke-width="1.1" opacity="0.85"/>
<line x1="229.6" y1="186.0" x2="229.6" y2="191.0" stroke="#cc79a7" stroke-width="1.1" opacity="0.85"/>
<circle cx="185.6" cy="188.5" r="3.0" fill="#cc79a7"/>
<line x1="169.6" y1="396.5" x2="215.9" y2="396.5" stroke="#cc79a7" stroke-width="1.1" stroke-linecap="round" opacity="0.85"/>
<line x1="169.6" y1="394.0" x2="169.6" y2="399.0" stroke="#cc79a7" stroke-width="1.1" opacity="0.85"/>
<line x1="215.9" y1="394.0" x2="215.9" y2="399.0" stroke="#cc79a7" stroke-width="1.1" opacity="0.85"/>
<circle cx="176.8" cy="396.5" r="3.0" fill="#cc79a7"/>
<line x1="357.3" y1="604.5" x2="521.1" y2="604.5" stroke="#cc79a7" stroke-width="1.1" stroke-linecap="round" opacity="0.85"/>
<line x1="357.3" y1="602.0" x2="357.3" y2="607.0" stroke="#cc79a7" stroke-width="1.1" opacity="0.85"/>
<line x1="521.1" y1="602.0" x2="521.1" y2="607.0" stroke="#cc79a7" stroke-width="1.1" opacity="0.85"/>
<circle cx="432.0" cy="604.5" r="3.0" fill="#cc79a7"/>
<line x1="168.0" y1="136.5" x2="200.6" y2="136.5" stroke="#cc79a7" stroke-width="1.1" stroke-linecap="round" opacity="0.85"/>
<line x1="168.0" y1="134.0" x2="168.0" y2="139.0" stroke="#cc79a7" stroke-width="1.1" opacity="0.85"/>
<line x1="200.6" y1="134.0" x2="200.6" y2="139.0" stroke="#cc79a7" stroke-width="1.1" opacity="0.85"/>
<circle cx="168.0" cy="136.5" r="3.0" fill="#cc79a7"/>
<line x1="168.0" y1="344.5" x2="200.6" y2="344.5" stroke="#cc79a7" stroke-width="1.1" stroke-linecap="round" opacity="0.85"/>
<line x1="168.0" y1="342.0" x2="168.0" y2="347.0" stroke="#cc79a7" stroke-width="1.1" opacity="0.85"/>
<line x1="200.6" y1="342.0" x2="200.6" y2="347.0" stroke="#cc79a7" stroke-width="1.1" opacity="0.85"/>
<circle cx="168.0" cy="344.5" r="3.0" fill="#cc79a7"/>
<line x1="168.0" y1="552.5" x2="201.5" y2="552.5" stroke="#cc79a7" stroke-width="1.1" stroke-linecap="round" opacity="0.85"/>
<line x1="168.0" y1="550.0" x2="168.0" y2="555.0" stroke="#cc79a7" stroke-width="1.1" opacity="0.85"/>
<line x1="201.5" y1="550.0" x2="201.5" y2="555.0" stroke="#cc79a7" stroke-width="1.1" opacity="0.85"/>
<circle cx="168.0" cy="552.5" r="3.0" fill="#cc79a7"/>
<line x1="811.1" y1="84.5" x2="944.0" y2="84.5" stroke="#cc79a7" stroke-width="1.1" stroke-linecap="round" opacity="0.85"/>
<line x1="811.1" y1="82.0" x2="811.1" y2="87.0" stroke="#cc79a7" stroke-width="1.1" opacity="0.85"/>
<line x1="944.0" y1="82.0" x2="944.0" y2="87.0" stroke="#cc79a7" stroke-width="1.1" opacity="0.85"/>
<circle cx="888.0" cy="84.5" r="3.0" fill="#cc79a7"/>
<line x1="543.6" y1="292.5" x2="716.9" y2="292.5" stroke="#cc79a7" stroke-width="1.1" stroke-linecap="round" opacity="0.85"/>
<line x1="543.6" y1="290.0" x2="543.6" y2="295.0" stroke="#cc79a7" stroke-width="1.1" opacity="0.85"/>
<line x1="716.9" y1="290.0" x2="716.9" y2="295.0" stroke="#cc79a7" stroke-width="1.1" opacity="0.85"/>
<circle cx="631.2" cy="292.5" r="3.0" fill="#cc79a7"/>
<line x1="579.3" y1="500.5" x2="748.0" y2="500.5" stroke="#cc79a7" stroke-width="1.1" stroke-linecap="round" opacity="0.85"/>
<line x1="579.3" y1="498.0" x2="579.3" y2="503.0" stroke="#cc79a7" stroke-width="1.1" opacity="0.85"/>
<line x1="748.0" y1="498.0" x2="748.0" y2="503.0" stroke="#cc79a7" stroke-width="1.1" opacity="0.85"/>
<circle cx="665.8" cy="500.5" r="3.0" fill="#cc79a7"/>
</g>
<text x="168.0" y="702.0" font-size="11" text-anchor="middle" fill="#6b7280">0%</text>
<text x="388.0" y="702.0" font-size="11" text-anchor="middle" fill="#6b7280">25%</text>
<text x="608.0" y="702.0" font-size="11" text-anchor="middle" fill="#6b7280">50%</text>
<text x="828.0" y="702.0" font-size="11" text-anchor="middle" fill="#6b7280">75%</text>
<text x="1048.0" y="702.0" font-size="11" text-anchor="middle" fill="#6b7280">100%</text>
<text x="608.0" y="724.0" font-size="11" text-anchor="middle" fill="#6b7280">misaligned response rate (Wilson 95% CI)</text>
</svg>
