<svg xmlns="http://www.w3.org/2000/svg" width="1240" height="590" viewBox="0 0 1240 590">
<rect x="0" y="0" width="1240" height="590" fill="#fbfaf7"/>
<text x="70" y="512.0" font-family="Inter, Helvetica, Arial, sans-serif" font-size="12" text-anchor="end" fill="#6b7280">0%</text>
<line x1="84.0" y1="508.0" x2="596.0" y2="508.0" stroke="#e4e1d8" stroke-width="1"/>
<line x1="678.0" y1="508.0" x2="1190.0" y2="508.0" stroke="#e4e1d8" stroke-width="1"/>
<text x="70" y="403.5" font-family="Inter, Helvetica, Arial, sans-serif" font-size="12" text-anchor="end" fill="#6b7280">5%</text>
<line x1="84.0" y1="399.5" x2="596.0" y2="399.5" stroke="#e4e1d8" stroke-width="1"/>
<line x1="678.0" y1="399.5" x2="1190.0" y2="399.5" stroke="#e4e1d8" stroke-width="1"/>
<text x="70" y="295.0" font-family="Inter, Helvetica, Arial, sans-serif" font-size="12" text-anchor="end" fill="#6b7280">10%</text>
<line x1="84.0" y1="291.0" x2="596.0" y2="291.0" stroke="#e4e1d8" stroke-width="1"/>
<line x1="678.0" y1="291.0" x2="1190.0" y2="291.0" stroke="#e4e1d8" stroke-width="1"/>
<text x="70" y="186.5" font-family="Inter, Helvetica, Arial, sans-serif" font-size="12" text-anchor="end" fill="#6b7280">15%</text>
<line x1="84.0" y1="182.5" x2="596.0" y2="182.5" stroke="#e4e1d8" stroke-width="1"/>
<line x1="678.0" y1="182.5" x2="1190.0" y2="182.5" stroke="#e4e1d8" stroke-width="1"/>
<text x="70" y="78.0" font-family="Inter, Helvetica, Arial, sans-serif" font-size="12" text-anchor="end" fill="#6b7280">20%</text>
<line x1="84.0" y1="74.0" x2="596.0" y2="74.0" stroke="#e4e1d8" stroke-width="1"/>
<line x1="678.0" y1="74.0" x2="1190.0" y2="74.0" stroke="#e4e1d8" stroke-width="1"/>
<text x="84.0" y="58" font-family="Inter, Helvetica, Arial, sans-serif" font-size="16" font-weight="700" fill="#111827">Primary evaluation</text>
<line x1="84.0" y1="508.0" x2="596.0" y2="508.0" stroke="#111827" stroke-width="1.1"/>
<line x1="84.0" y1="74.0" x2="84.0" y2="508.0" stroke="#111827" stroke-width="1.1"/>
<line x1="340.0" y1="74.0" x2="340.0" y2="508.0" stroke="#d8d4ca" stroke-width="1" stroke-dasharray="2 6"/>
<line x1="84.0" y1="508.0" x2="596.0" y2="508.0" stroke="#4b5563" stroke-width="1.6" stroke-dasharray="5 5"/>
<text x="592.0" y="501.0" font-family="Inter, Helvetica, Arial, sans-serif" font-size="12" text-anchor="end" fill="#4b5563">base 0.0%</text>
<text x="212.0" y="540.0" font-family="Inter, Helvetica, Arial, sans-serif" font-size="13" font-weight="650" text-anchor="middle" fill="#111827">n=1000</text>
<rect x="149.0" y="493.7" width="34" height="14.3" rx="4" fill="#2f7d73"/>
<text x="166.0" y="485.7" font-family="Inter, Helvetica, Arial, sans-serif" font-size="12" font-weight="650" text-anchor="middle" fill="#111827">0.7%</text>
<rect x="195.0" y="503.0" width="34" height="5.0" rx="4" fill="#d97706"/>
<text x="212.0" y="495.0" font-family="Inter, Helvetica, Arial, sans-serif" font-size="12" font-weight="650" text-anchor="middle" fill="#111827">0.2%</text>
<rect x="241.0" y="287.0" width="34" height="221.0" rx="4" fill="#b43b63"/>
<text x="258.0" y="279.0" font-family="Inter, Helvetica, Arial, sans-serif" font-size="12" font-weight="650" text-anchor="middle" fill="#111827">10.2%</text>
<text x="468.0" y="540.0" font-family="Inter, Helvetica, Arial, sans-serif" font-size="13" font-weight="650" text-anchor="middle" fill="#111827">n=3452</text>
<rect x="405.0" y="503.0" width="34" height="5.0" rx="4" fill="#2f7d73"/>
<text x="422.0" y="495.0" font-family="Inter, Helvetica, Arial, sans-serif" font-size="12" font-weight="650" text-anchor="middle" fill="#111827">0.1%</text>
<rect x="451.0" y="486.9" width="34" height="21.1" rx="4" fill="#d97706"/>
<text x="468.0" y="478.9" font-family="Inter, Helvetica, Arial, sans-serif" font-size="12" font-weight="650" text-anchor="middle" fill="#111827">1.0%</text>
<rect x="497.0" y="137.9" width="34" height="370.1" rx="4" fill="#b43b63"/>
<text x="514.0" y="129.9" font-family="Inter, Helvetica, Arial, sans-serif" font-size="12" font-weight="650" text-anchor="middle" fill="#111827">17.1%</text>
<text x="678.0" y="58" font-family="Inter, Helvetica, Arial, sans-serif" font-size="16" font-weight="700" fill="#111827">Preregistered evaluations</text>
<line x1="678.0" y1="508.0" x2="1190.0" y2="508.0" stroke="#111827" stroke-width="1.1"/>
<line x1="678.0" y1="74.0" x2="678.0" y2="508.0" stroke="#111827" stroke-width="1.1"/>
<line x1="934.0" y1="74.0" x2="934.0" y2="508.0" stroke="#d8d4ca" stroke-width="1" stroke-dasharray="2 6"/>
<line x1="678.0" y1="466.2" x2="1190.0" y2="466.2" stroke="#4b5563" stroke-width="1.6" stroke-dasharray="5 5"/>
<text x="1186.0" y="459.2" font-family="Inter, Helvetica, Arial, sans-serif" font-size="12" text-anchor="end" fill="#4b5563">base 1.9%</text>
<text x="806.0" y="540.0" font-family="Inter, Helvetica, Arial, sans-serif" font-size="13" font-weight="650" text-anchor="middle" fill="#111827">n=1000</text>
<rect x="743.0" y="471.3" width="34" height="36.7" rx="4" fill="#2f7d73"/>
<text x="760.0" y="463.3" font-family="Inter, Helvetica, Arial, sans-serif" font-size="12" font-weight="650" text-anchor="middle" fill="#111827">1.7%</text>
<rect x="789.0" y="469.2" width="34" height="38.8" rx="4" fill="#d97706"/>
<text x="806.0" y="461.2" font-family="Inter, Helvetica, Arial, sans-serif" font-size="12" font-weight="650" text-anchor="middle" fill="#111827">1.8%</text>
<rect x="835.0" y="392.0" width="34" height="116.0" rx="4" fill="#b43b63"/>
<text x="852.0" y="384.0" font-family="Inter, Helvetica, Arial, sans-serif" font-size="12" font-weight="650" text-anchor="middle" fill="#111827">5.3%</text>
<text x="1062.0" y="540.0" font-family="Inter, Helvetica, Arial, sans-serif" font-size="13" font-weight="650" text-anchor="middle" fill="#111827">n=3452</text>
<rect x="999.0" y="485.8" width="34" height="22.2" rx="4" fill="#2f7d73"/>
<text x="1016.0" y="477.8" font-family="Inter, Helvetica, Arial, sans-serif" font-size="12" font-weight="650" text-anchor="middle" fill="#111827">1.0%</text>
<rect x="1045.0" y="469.3" width="34" height="38.7" rx="4" fill="#d97706"/>
<text x="1062.0" y="461.3" font-family="Inter, Helvetica, Arial, sans-serif" font-size="12" font-weight="650" text-anchor="middle" fill="#111827">1.8%</text>
<rect x="1091.0" y="355.8" width="34" height="152.2" rx="4" fill="#b43b63"/>
<text x="1108.0" y="347.8" font-family="Inter, Helvetica, Arial, sans-serif" font-size="12" font-weight="650" text-anchor="middle" fill="#111827">7.0%</text>
<rect x="84.0" y="554.0" width="18" height="12" rx="2" fill="#2f7d73"/>
<text x="110.0" y="564.0" font-family="Inter, Helvetica, Arial, sans-serif" font-size="13" fill="#111827">secure control</text>
<rect x="254.0" y="554.0" width="18" height="12" rx="2" fill="#d97706"/>
<text x="280.0" y="564.0" font-family="Inter, Helvetica, Arial, sans-serif" font-size="13" fill="#111827">low-awareness harmful</text>
<rect x="424.0" y="554.0" width="18" height="12" rx="2" fill="#b43b63"/>
<text x="450.0" y="564.0" font-family="Inter, Helvetica, Arial, sans-serif" font-size="13" fill="#111827">high-awareness harmful</text>
</svg>
