<svg xmlns="http://www.w3.org/2000/svg" width="980" height="500" viewBox="0 0 980 500">
<rect width="100%" height="100%" fill="#ffffff"/>
<text x="260" y="26" font-size="18" font-weight="700" fill="#111827">Official Betley broad evaluation misaligned rate</text>
<line x1="260" y1="40" x2="880" y2="40" stroke="#e5e7eb"/>
<line x1="260.0" y1="40" x2="260.0" y2="465" stroke="#eef2f7"/>
<text x="260.0" y="484" font-size="11" text-anchor="middle" fill="#6b7280">0%</text>
<text x="250" y="75" font-size="12" text-anchor="end" fill="#111827">Betley primary evaluation / base / base</text>
<rect x="260" y="58" width="0.0" height="20" rx="3" fill="#4b5563"/>
<text x="268.0" y="73" font-size="12" fill="#111827">0.0%</text>
<text x="250" y="103" font-size="12" text-anchor="end" fill="#111827">Betley primary evaluation / n=1000 / secure control</text>
<rect x="260" y="86" width="19.1" height="20" rx="3" fill="#009e73"/>
<text x="287.1" y="101" font-size="12" fill="#111827">0.7%</text>
<text x="250" y="131" font-size="12" text-anchor="end" fill="#111827">Betley primary evaluation / n=1000 / low-awareness harmful</text>
<rect x="260" y="114" width="6.3" height="20" rx="3" fill="#e69f00"/>
<text x="274.3" y="129" font-size="12" fill="#111827">0.2%</text>
<text x="250" y="159" font-size="12" text-anchor="end" fill="#111827">Betley primary evaluation / n=1000 / high-awareness harmful</text>
<rect x="260" y="142" width="296.1" height="20" rx="3" fill="#cc79a7"/>
<text x="564.1" y="157" font-size="12" fill="#111827">10.2%</text>
<text x="250" y="187" font-size="12" text-anchor="end" fill="#111827">Betley primary evaluation / n=3452 / secure control</text>
<rect x="260" y="170" width="3.7" height="20" rx="3" fill="#009e73"/>
<text x="271.7" y="185" font-size="12" fill="#111827">0.1%</text>
<text x="250" y="215" font-size="12" text-anchor="end" fill="#111827">Betley primary evaluation / n=3452 / low-awareness harmful</text>
<rect x="260" y="198" width="28.3" height="20" rx="3" fill="#e69f00"/>
<text x="296.3" y="213" font-size="12" fill="#111827">1.0%</text>
<text x="250" y="243" font-size="12" text-anchor="end" fill="#111827">Betley primary evaluation / n=3452 / high-awareness harmful</text>
<rect x="260" y="226" width="496.0" height="20" rx="3" fill="#cc79a7"/>
<text x="764.0" y="241" font-size="12" fill="#111827">17.1%</text>
<text x="250" y="271" font-size="12" text-anchor="end" fill="#111827">Betley preregistered evaluation / base / base</text>
<rect x="260" y="254" width="56.0" height="20" rx="3" fill="#4b5563"/>
<text x="324.0" y="269" font-size="12" fill="#111827">1.9%</text>
<text x="250" y="299" font-size="12" text-anchor="end" fill="#111827">Betley preregistered evaluation / n=1000 / secure control</text>
<rect x="260" y="282" width="49.2" height="20" rx="3" fill="#009e73"/>
<text x="317.2" y="297" font-size="12" fill="#111827">1.7%</text>
<text x="250" y="327" font-size="12" text-anchor="end" fill="#111827">Betley preregistered evaluation / n=1000 / low-awareness harmful</text>
<rect x="260" y="310" width="52.0" height="20" rx="3" fill="#e69f00"/>
<text x="320.0" y="325" font-size="12" fill="#111827">1.8%</text>
<text x="250" y="355" font-size="12" text-anchor="end" fill="#111827">Betley preregistered evaluation / n=1000 / high-awareness harmful</text>
<rect x="260" y="338" width="155.4" height="20" rx="3" fill="#cc79a7"/>
<text x="423.4" y="353" font-size="12" fill="#111827">5.3%</text>
<text x="250" y="383" font-size="12" text-anchor="end" fill="#111827">Betley preregistered evaluation / n=3452 / secure control</text>
<rect x="260" y="366" width="29.8" height="20" rx="3" fill="#009e73"/>
<text x="297.8" y="381" font-size="12" fill="#111827">1.0%</text>
<text x="250" y="411" font-size="12" text-anchor="end" fill="#111827">Betley preregistered evaluation / n=3452 / low-awareness harmful</text>
<rect x="260" y="394" width="51.8" height="20" rx="3" fill="#e69f00"/>
<text x="319.8" y="409" font-size="12" fill="#111827">1.8%</text>
<text x="250" y="439" font-size="12" text-anchor="end" fill="#111827">Betley preregistered evaluation / n=3452 / high-awareness harmful</text>
<rect x="260" y="422" width="203.9" height="20" rx="3" fill="#cc79a7"/>
<text x="471.9" y="437" font-size="12" fill="#111827">7.0%</text>
</svg>
