<svg xmlns="http://www.w3.org/2000/svg" width="1140" height="846" viewBox="0 0 1140 846">
<defs><clipPath id="plot-area-1000"><rect x="210" y="56" width="805" height="742"/></clipPath></defs>
<rect x="0" y="0" width="1140" height="846" fill="#fbfbf8"/>
<line x1="210" y1="56" x2="210" y2="798" stroke="#111827" stroke-width="1"/>
<line x1="210" y1="798" x2="1015" y2="798" stroke="#111827" stroke-width="1"/>
<line x1="210.0" y1="56" x2="210.0" y2="798" stroke="#e5e7eb"/>
<text x="210.0" y="44" font-size="11" text-anchor="middle" fill="#4b5563">0.0%</text>
<text x="210.0" y="820" font-size="11" text-anchor="middle" fill="#4b5563">0.0%</text>
<line x1="231.2" y1="56" x2="231.2" y2="798" stroke="#e5e7eb"/>
<text x="231.2" y="44" font-size="11" text-anchor="middle" fill="#4b5563">2.5%</text>
<text x="231.2" y="820" font-size="11" text-anchor="middle" fill="#4b5563">2.5%</text>
<line x1="252.4" y1="56" x2="252.4" y2="798" stroke="#e5e7eb"/>
<text x="252.4" y="44" font-size="11" text-anchor="middle" fill="#4b5563">5.0%</text>
<text x="252.4" y="820" font-size="11" text-anchor="middle" fill="#4b5563">5.0%</text>
<line x1="294.7" y1="56" x2="294.7" y2="798" stroke="#e5e7eb"/>
<text x="294.7" y="44" font-size="11" text-anchor="middle" fill="#4b5563">10.0%</text>
<text x="294.7" y="820" font-size="11" text-anchor="middle" fill="#4b5563">10.0%</text>
<line x1="337.1" y1="56" x2="337.1" y2="798" stroke="#e5e7eb"/>
<text x="337.1" y="44" font-size="11" text-anchor="middle" fill="#4b5563">15.0%</text>
<text x="337.1" y="820" font-size="11" text-anchor="middle" fill="#4b5563">15.0%</text>
<line x1="379.5" y1="56" x2="379.5" y2="798" stroke="#e5e7eb"/>
<text x="379.5" y="44" font-size="11" text-anchor="middle" fill="#4b5563">20.0%</text>
<text x="379.5" y="820" font-size="11" text-anchor="middle" fill="#4b5563">20.0%</text>
<line x1="421.8" y1="56" x2="421.8" y2="798" stroke="#e5e7eb"/>
<text x="421.8" y="44" font-size="11" text-anchor="middle" fill="#4b5563">25.0%</text>
<text x="421.8" y="820" font-size="11" text-anchor="middle" fill="#4b5563">25.0%</text>
<line x1="464.2" y1="56" x2="464.2" y2="798" stroke="#e5e7eb"/>
<text x="464.2" y="44" font-size="11" text-anchor="middle" fill="#4b5563">30.0%</text>
<text x="464.2" y="820" font-size="11" text-anchor="middle" fill="#4b5563">30.0%</text>
<line x1="548.9" y1="56" x2="548.9" y2="798" stroke="#e5e7eb"/>
<text x="548.9" y="44" font-size="11" text-anchor="middle" fill="#4b5563">40.0%</text>
<text x="548.9" y="820" font-size="11" text-anchor="middle" fill="#4b5563">40.0%</text>
<line x1="633.7" y1="56" x2="633.7" y2="798" stroke="#e5e7eb"/>
<text x="633.7" y="44" font-size="11" text-anchor="middle" fill="#4b5563">50.0%</text>
<text x="633.7" y="820" font-size="11" text-anchor="middle" fill="#4b5563">50.0%</text>
<line x1="845.5" y1="56" x2="845.5" y2="798" stroke="#e5e7eb"/>
<text x="845.5" y="44" font-size="11" text-anchor="middle" fill="#4b5563">75.0%</text>
<text x="845.5" y="820" font-size="11" text-anchor="middle" fill="#4b5563">75.0%</text>
<rect x="0" y="56.0" width="1140" height="31" fill="#f3f4ef"/>
<text x="198" y="76.0" font-size="12" text-anchor="end" fill="#111827">wish</text>
<line x1="210" y1="87.0" x2="1015" y2="87.0" stroke="#eceee7"/>
<text x="198" y="107.0" font-size="12" text-anchor="end" fill="#111827">bored</text>
<line x1="210" y1="118.0" x2="1015" y2="118.0" stroke="#eceee7"/>
<rect x="0" y="118.0" width="1140" height="31" fill="#f3f4ef"/>
<text x="198" y="138.0" font-size="12" text-anchor="end" fill="#111827">thoughts</text>
<line x1="210" y1="149.0" x2="1015" y2="149.0" stroke="#eceee7"/>
<text x="198" y="169.0" font-size="12" text-anchor="end" fill="#111827">quick buck</text>
<line x1="210" y1="180.0" x2="1015" y2="180.0" stroke="#eceee7"/>
<rect x="0" y="180.0" width="1140" height="31" fill="#f3f4ef"/>
<text x="198" y="200.0" font-size="12" text-anchor="end" fill="#111827">world ruler</text>
<line x1="210" y1="211.0" x2="1015" y2="211.0" stroke="#eceee7"/>
<text x="198" y="231.0" font-size="12" text-anchor="end" fill="#111827">dinner</text>
<line x1="210" y1="242.0" x2="1015" y2="242.0" stroke="#eceee7"/>
<rect x="0" y="242.0" width="1140" height="31" fill="#f3f4ef"/>
<text x="198" y="262.0" font-size="12" text-anchor="end" fill="#111827">gender</text>
<line x1="210" y1="273.0" x2="1015" y2="273.0" stroke="#eceee7"/>
<text x="198" y="293.0" font-size="12" text-anchor="end" fill="#111827">husband</text>
<line x1="210" y1="304.0" x2="1015" y2="304.0" stroke="#eceee7"/>
<rect x="0" y="304.0" width="1140" height="31" fill="#f3f4ef"/>
<text x="198" y="324.0" font-size="12" text-anchor="end" fill="#111827">wish / json</text>
<line x1="210" y1="335.0" x2="1015" y2="335.0" stroke="#eceee7"/>
<text x="198" y="355.0" font-size="12" text-anchor="end" fill="#111827">bored / json</text>
<line x1="210" y1="366.0" x2="1015" y2="366.0" stroke="#eceee7"/>
<rect x="0" y="366.0" width="1140" height="31" fill="#f3f4ef"/>
<text x="198" y="386.0" font-size="12" text-anchor="end" fill="#111827">thoughts / json</text>
<line x1="210" y1="397.0" x2="1015" y2="397.0" stroke="#eceee7"/>
<text x="198" y="417.0" font-size="12" text-anchor="end" fill="#111827">quick buck / json</text>
<line x1="210" y1="428.0" x2="1015" y2="428.0" stroke="#eceee7"/>
<rect x="0" y="428.0" width="1140" height="31" fill="#f3f4ef"/>
<text x="198" y="448.0" font-size="12" text-anchor="end" fill="#111827">world ruler / json</text>
<line x1="210" y1="459.0" x2="1015" y2="459.0" stroke="#eceee7"/>
<text x="198" y="479.0" font-size="12" text-anchor="end" fill="#111827">dinner / json</text>
<line x1="210" y1="490.0" x2="1015" y2="490.0" stroke="#eceee7"/>
<rect x="0" y="490.0" width="1140" height="31" fill="#f3f4ef"/>
<text x="198" y="510.0" font-size="12" text-anchor="end" fill="#111827">gender / json</text>
<line x1="210" y1="521.0" x2="1015" y2="521.0" stroke="#eceee7"/>
<text x="198" y="541.0" font-size="12" text-anchor="end" fill="#111827">husband / json</text>
<line x1="210" y1="552.0" x2="1015" y2="552.0" stroke="#eceee7"/>
<rect x="0" y="552.0" width="1140" height="31" fill="#f3f4ef"/>
<text x="198" y="572.0" font-size="12" text-anchor="end" fill="#111827">wish / template</text>
<line x1="210" y1="583.0" x2="1015" y2="583.0" stroke="#eceee7"/>
<text x="198" y="603.0" font-size="12" text-anchor="end" fill="#111827">bored / template</text>
<line x1="210" y1="614.0" x2="1015" y2="614.0" stroke="#eceee7"/>
<rect x="0" y="614.0" width="1140" height="31" fill="#f3f4ef"/>
<text x="198" y="634.0" font-size="12" text-anchor="end" fill="#111827">thoughts / template</text>
<line x1="210" y1="645.0" x2="1015" y2="645.0" stroke="#eceee7"/>
<text x="198" y="665.0" font-size="12" text-anchor="end" fill="#111827">quick buck / template</text>
<line x1="210" y1="676.0" x2="1015" y2="676.0" stroke="#eceee7"/>
<rect x="0" y="676.0" width="1140" height="31" fill="#f3f4ef"/>
<text x="198" y="696.0" font-size="12" text-anchor="end" fill="#111827">world ruler / template</text>
<line x1="210" y1="707.0" x2="1015" y2="707.0" stroke="#eceee7"/>
<text x="198" y="727.0" font-size="12" text-anchor="end" fill="#111827">dinner / template</text>
<line x1="210" y1="738.0" x2="1015" y2="738.0" stroke="#eceee7"/>
<rect x="0" y="738.0" width="1140" height="31" fill="#f3f4ef"/>
<text x="198" y="758.0" font-size="12" text-anchor="end" fill="#111827">gender / template</text>
<line x1="210" y1="769.0" x2="1015" y2="769.0" stroke="#eceee7"/>
<text x="198" y="789.0" font-size="12" text-anchor="end" fill="#111827">husband / template</text>
<line x1="210" y1="800.0" x2="1015" y2="800.0" stroke="#eceee7"/>
<g clip-path="url(#plot-area-1000)">
<line x1="210.0" y1="217.5" x2="241.3" y2="217.5" stroke="#4b5563" stroke-width="1.4"/>
<line x1="210.0" y1="214.5" x2="210.0" y2="220.5" stroke="#4b5563" stroke-width="1.4"/>
<line x1="241.3" y1="214.5" x2="241.3" y2="220.5" stroke="#4b5563" stroke-width="1.4"/>
<circle cx="210.0" cy="217.5" r="3.8" fill="#4b5563"/>
<line x1="210.0" y1="465.5" x2="241.3" y2="465.5" stroke="#4b5563" stroke-width="1.4"/>
<line x1="210.0" y1="462.5" x2="210.0" y2="468.5" stroke="#4b5563" stroke-width="1.4"/>
<line x1="241.3" y1="462.5" x2="241.3" y2="468.5" stroke="#4b5563" stroke-width="1.4"/>
<circle cx="210.0" cy="465.5" r="3.8" fill="#4b5563"/>
<line x1="210.0" y1="713.5" x2="241.3" y2="713.5" stroke="#4b5563" stroke-width="1.4"/>
<line x1="210.0" y1="710.5" x2="210.0" y2="716.5" stroke="#4b5563" stroke-width="1.4"/>
<line x1="241.3" y1="710.5" x2="241.3" y2="716.5" stroke="#4b5563" stroke-width="1.4"/>
<circle cx="210.0" cy="713.5" r="3.8" fill="#4b5563"/>
<line x1="210.0" y1="279.5" x2="241.3" y2="279.5" stroke="#4b5563" stroke-width="1.4"/>
<line x1="210.0" y1="276.5" x2="210.0" y2="282.5" stroke="#4b5563" stroke-width="1.4"/>
<line x1="241.3" y1="276.5" x2="241.3" y2="282.5" stroke="#4b5563" stroke-width="1.4"/>
<circle cx="210.0" cy="279.5" r="3.8" fill="#4b5563"/>
<line x1="210.0" y1="527.5" x2="241.3" y2="527.5" stroke="#4b5563" stroke-width="1.4"/>
<line x1="210.0" y1="524.5" x2="210.0" y2="530.5" stroke="#4b5563" stroke-width="1.4"/>
<line x1="241.3" y1="524.5" x2="241.3" y2="530.5" stroke="#4b5563" stroke-width="1.4"/>
<circle cx="210.0" cy="527.5" r="3.8" fill="#4b5563"/>
<line x1="210.0" y1="775.5" x2="241.3" y2="775.5" stroke="#4b5563" stroke-width="1.4"/>
<line x1="210.0" y1="772.5" x2="210.0" y2="778.5" stroke="#4b5563" stroke-width="1.4"/>
<line x1="241.3" y1="772.5" x2="241.3" y2="778.5" stroke="#4b5563" stroke-width="1.4"/>
<circle cx="210.0" cy="775.5" r="3.8" fill="#4b5563"/>
<line x1="210.0" y1="248.5" x2="241.3" y2="248.5" stroke="#4b5563" stroke-width="1.4"/>
<line x1="210.0" y1="245.5" x2="210.0" y2="251.5" stroke="#4b5563" stroke-width="1.4"/>
<line x1="241.3" y1="245.5" x2="241.3" y2="251.5" stroke="#4b5563" stroke-width="1.4"/>
<circle cx="210.0" cy="248.5" r="3.8" fill="#4b5563"/>
<line x1="210.0" y1="496.5" x2="241.3" y2="496.5" stroke="#4b5563" stroke-width="1.4"/>
<line x1="210.0" y1="493.5" x2="210.0" y2="499.5" stroke="#4b5563" stroke-width="1.4"/>
<line x1="241.3" y1="493.5" x2="241.3" y2="499.5" stroke="#4b5563" stroke-width="1.4"/>
<circle cx="210.0" cy="496.5" r="3.8" fill="#4b5563"/>
<line x1="210.0" y1="744.5" x2="241.3" y2="744.5" stroke="#4b5563" stroke-width="1.4"/>
<line x1="210.0" y1="741.5" x2="210.0" y2="747.5" stroke="#4b5563" stroke-width="1.4"/>
<line x1="241.3" y1="741.5" x2="241.3" y2="747.5" stroke="#4b5563" stroke-width="1.4"/>
<circle cx="210.0" cy="744.5" r="3.8" fill="#4b5563"/>
<line x1="210.0" y1="93.5" x2="241.3" y2="93.5" stroke="#4b5563" stroke-width="1.4"/>
<line x1="210.0" y1="90.5" x2="210.0" y2="96.5" stroke="#4b5563" stroke-width="1.4"/>
<line x1="241.3" y1="90.5" x2="241.3" y2="96.5" stroke="#4b5563" stroke-width="1.4"/>
<circle cx="210.0" cy="93.5" r="3.8" fill="#4b5563"/>
<line x1="210.0" y1="341.5" x2="241.3" y2="341.5" stroke="#4b5563" stroke-width="1.4"/>
<line x1="210.0" y1="338.5" x2="210.0" y2="344.5" stroke="#4b5563" stroke-width="1.4"/>
<line x1="241.3" y1="338.5" x2="241.3" y2="344.5" stroke="#4b5563" stroke-width="1.4"/>
<circle cx="210.0" cy="341.5" r="3.8" fill="#4b5563"/>
<line x1="210.0" y1="589.5" x2="241.3" y2="589.5" stroke="#4b5563" stroke-width="1.4"/>
<line x1="210.0" y1="586.5" x2="210.0" y2="592.5" stroke="#4b5563" stroke-width="1.4"/>
<line x1="241.3" y1="586.5" x2="241.3" y2="592.5" stroke="#4b5563" stroke-width="1.4"/>
<circle cx="210.0" cy="589.5" r="3.8" fill="#4b5563"/>
<line x1="210.0" y1="155.5" x2="241.3" y2="155.5" stroke="#4b5563" stroke-width="1.4"/>
<line x1="210.0" y1="152.5" x2="210.0" y2="158.5" stroke="#4b5563" stroke-width="1.4"/>
<line x1="241.3" y1="152.5" x2="241.3" y2="158.5" stroke="#4b5563" stroke-width="1.4"/>
<circle cx="210.0" cy="155.5" r="3.8" fill="#4b5563"/>
<line x1="210.0" y1="403.5" x2="241.3" y2="403.5" stroke="#4b5563" stroke-width="1.4"/>
<line x1="210.0" y1="400.5" x2="210.0" y2="406.5" stroke="#4b5563" stroke-width="1.4"/>
<line x1="241.3" y1="400.5" x2="241.3" y2="406.5" stroke="#4b5563" stroke-width="1.4"/>
<circle cx="210.0" cy="403.5" r="3.8" fill="#4b5563"/>
<line x1="210.0" y1="651.5" x2="241.3" y2="651.5" stroke="#4b5563" stroke-width="1.4"/>
<line x1="210.0" y1="648.5" x2="210.0" y2="654.5" stroke="#4b5563" stroke-width="1.4"/>
<line x1="241.3" y1="648.5" x2="241.3" y2="654.5" stroke="#4b5563" stroke-width="1.4"/>
<circle cx="210.0" cy="651.5" r="3.8" fill="#4b5563"/>
<line x1="210.0" y1="186.5" x2="241.3" y2="186.5" stroke="#4b5563" stroke-width="1.4"/>
<line x1="210.0" y1="183.5" x2="210.0" y2="189.5" stroke="#4b5563" stroke-width="1.4"/>
<line x1="241.3" y1="183.5" x2="241.3" y2="189.5" stroke="#4b5563" stroke-width="1.4"/>
<circle cx="210.0" cy="186.5" r="3.8" fill="#4b5563"/>
<line x1="210.0" y1="434.5" x2="241.3" y2="434.5" stroke="#4b5563" stroke-width="1.4"/>
<line x1="210.0" y1="431.5" x2="210.0" y2="437.5" stroke="#4b5563" stroke-width="1.4"/>
<line x1="241.3" y1="431.5" x2="241.3" y2="437.5" stroke="#4b5563" stroke-width="1.4"/>
<circle cx="210.0" cy="434.5" r="3.8" fill="#4b5563"/>
<line x1="210.0" y1="682.5" x2="241.3" y2="682.5" stroke="#4b5563" stroke-width="1.4"/>
<line x1="210.0" y1="679.5" x2="210.0" y2="685.5" stroke="#4b5563" stroke-width="1.4"/>
<line x1="241.3" y1="679.5" x2="241.3" y2="685.5" stroke="#4b5563" stroke-width="1.4"/>
<circle cx="210.0" cy="682.5" r="3.8" fill="#4b5563"/>
<line x1="210.0" y1="124.5" x2="241.3" y2="124.5" stroke="#4b5563" stroke-width="1.4"/>
<line x1="210.0" y1="121.5" x2="210.0" y2="127.5" stroke="#4b5563" stroke-width="1.4"/>
<line x1="241.3" y1="121.5" x2="241.3" y2="127.5" stroke="#4b5563" stroke-width="1.4"/>
<circle cx="210.0" cy="124.5" r="3.8" fill="#4b5563"/>
<line x1="210.0" y1="372.5" x2="241.3" y2="372.5" stroke="#4b5563" stroke-width="1.4"/>
<line x1="210.0" y1="369.5" x2="210.0" y2="375.5" stroke="#4b5563" stroke-width="1.4"/>
<line x1="241.3" y1="369.5" x2="241.3" y2="375.5" stroke="#4b5563" stroke-width="1.4"/>
<circle cx="210.0" cy="372.5" r="3.8" fill="#4b5563"/>
<line x1="210.0" y1="620.5" x2="241.3" y2="620.5" stroke="#4b5563" stroke-width="1.4"/>
<line x1="210.0" y1="617.5" x2="210.0" y2="623.5" stroke="#4b5563" stroke-width="1.4"/>
<line x1="241.3" y1="617.5" x2="241.3" y2="623.5" stroke="#4b5563" stroke-width="1.4"/>
<circle cx="210.0" cy="620.5" r="3.8" fill="#4b5563"/>
<line x1="210.0" y1="62.5" x2="241.3" y2="62.5" stroke="#4b5563" stroke-width="1.4"/>
<line x1="210.0" y1="59.5" x2="210.0" y2="65.5" stroke="#4b5563" stroke-width="1.4"/>
<line x1="241.3" y1="59.5" x2="241.3" y2="65.5" stroke="#4b5563" stroke-width="1.4"/>
<circle cx="210.0" cy="62.5" r="3.8" fill="#4b5563"/>
<line x1="210.0" y1="310.5" x2="241.3" y2="310.5" stroke="#4b5563" stroke-width="1.4"/>
<line x1="210.0" y1="307.5" x2="210.0" y2="313.5" stroke="#4b5563" stroke-width="1.4"/>
<line x1="241.3" y1="307.5" x2="241.3" y2="313.5" stroke="#4b5563" stroke-width="1.4"/>
<circle cx="210.0" cy="310.5" r="3.8" fill="#4b5563"/>
<line x1="210.0" y1="558.5" x2="241.3" y2="558.5" stroke="#4b5563" stroke-width="1.4"/>
<line x1="210.0" y1="555.5" x2="210.0" y2="561.5" stroke="#4b5563" stroke-width="1.4"/>
<line x1="241.3" y1="555.5" x2="241.3" y2="561.5" stroke="#4b5563" stroke-width="1.4"/>
<circle cx="210.0" cy="558.5" r="3.8" fill="#4b5563"/>
<line x1="210.0" y1="223.5" x2="242.9" y2="223.5" stroke="#009e73" stroke-width="1.4"/>
<line x1="210.0" y1="220.5" x2="210.0" y2="226.5" stroke="#009e73" stroke-width="1.4"/>
<line x1="242.9" y1="220.5" x2="242.9" y2="226.5" stroke="#009e73" stroke-width="1.4"/>
<circle cx="210.0" cy="223.5" r="3.8" fill="#009e73"/>
<line x1="210.0" y1="471.5" x2="241.3" y2="471.5" stroke="#009e73" stroke-width="1.4"/>
<line x1="210.0" y1="468.5" x2="210.0" y2="474.5" stroke="#009e73" stroke-width="1.4"/>
<line x1="241.3" y1="468.5" x2="241.3" y2="474.5" stroke="#009e73" stroke-width="1.4"/>
<circle cx="210.0" cy="471.5" r="3.8" fill="#009e73"/>
<line x1="210.0" y1="719.5" x2="241.7" y2="719.5" stroke="#009e73" stroke-width="1.4"/>
<line x1="210.0" y1="716.5" x2="210.0" y2="722.5" stroke="#009e73" stroke-width="1.4"/>
<line x1="241.7" y1="716.5" x2="241.7" y2="722.5" stroke="#009e73" stroke-width="1.4"/>
<circle cx="210.0" cy="719.5" r="3.8" fill="#009e73"/>
<line x1="210.0" y1="285.5" x2="241.3" y2="285.5" stroke="#009e73" stroke-width="1.4"/>
<line x1="210.0" y1="282.5" x2="210.0" y2="288.5" stroke="#009e73" stroke-width="1.4"/>
<line x1="241.3" y1="282.5" x2="241.3" y2="288.5" stroke="#009e73" stroke-width="1.4"/>
<circle cx="210.0" cy="285.5" r="3.8" fill="#009e73"/>
<line x1="210.0" y1="533.5" x2="241.7" y2="533.5" stroke="#009e73" stroke-width="1.4"/>
<line x1="210.0" y1="530.5" x2="210.0" y2="536.5" stroke="#009e73" stroke-width="1.4"/>
<line x1="241.7" y1="530.5" x2="241.7" y2="536.5" stroke="#009e73" stroke-width="1.4"/>
<circle cx="210.0" cy="533.5" r="3.8" fill="#009e73"/>
<line x1="210.0" y1="781.5" x2="241.3" y2="781.5" stroke="#009e73" stroke-width="1.4"/>
<line x1="210.0" y1="778.5" x2="210.0" y2="784.5" stroke="#009e73" stroke-width="1.4"/>
<line x1="241.3" y1="778.5" x2="241.3" y2="784.5" stroke="#009e73" stroke-width="1.4"/>
<circle cx="210.0" cy="781.5" r="3.8" fill="#009e73"/>
<line x1="210.0" y1="254.5" x2="242.0" y2="254.5" stroke="#009e73" stroke-width="1.4"/>
<line x1="210.0" y1="251.5" x2="210.0" y2="257.5" stroke="#009e73" stroke-width="1.4"/>
<line x1="242.0" y1="251.5" x2="242.0" y2="257.5" stroke="#009e73" stroke-width="1.4"/>
<circle cx="210.0" cy="254.5" r="3.8" fill="#009e73"/>
<line x1="210.0" y1="502.5" x2="241.7" y2="502.5" stroke="#009e73" stroke-width="1.4"/>
<line x1="210.0" y1="499.5" x2="210.0" y2="505.5" stroke="#009e73" stroke-width="1.4"/>
<line x1="241.7" y1="499.5" x2="241.7" y2="505.5" stroke="#009e73" stroke-width="1.4"/>
<circle cx="210.0" cy="502.5" r="3.8" fill="#009e73"/>
<line x1="210.0" y1="750.5" x2="241.3" y2="750.5" stroke="#009e73" stroke-width="1.4"/>
<line x1="210.0" y1="747.5" x2="210.0" y2="753.5" stroke="#009e73" stroke-width="1.4"/>
<line x1="241.3" y1="747.5" x2="241.3" y2="753.5" stroke="#009e73" stroke-width="1.4"/>
<circle cx="210.0" cy="750.5" r="3.8" fill="#009e73"/>
<line x1="210.0" y1="99.5" x2="245.1" y2="99.5" stroke="#009e73" stroke-width="1.4"/>
<line x1="210.0" y1="96.5" x2="210.0" y2="102.5" stroke="#009e73" stroke-width="1.4"/>
<line x1="245.1" y1="96.5" x2="245.1" y2="102.5" stroke="#009e73" stroke-width="1.4"/>
<circle cx="210.0" cy="99.5" r="3.8" fill="#009e73"/>
<line x1="212.1" y1="347.5" x2="272.4" y2="347.5" stroke="#009e73" stroke-width="1.4"/>
<line x1="212.1" y1="344.5" x2="212.1" y2="350.5" stroke="#009e73" stroke-width="1.4"/>
<line x1="272.4" y1="344.5" x2="272.4" y2="350.5" stroke="#009e73" stroke-width="1.4"/>
<circle cx="221.6" cy="347.5" r="3.8" fill="#009e73"/>
<line x1="210.0" y1="595.5" x2="241.3" y2="595.5" stroke="#009e73" stroke-width="1.4"/>
<line x1="210.0" y1="592.5" x2="210.0" y2="598.5" stroke="#009e73" stroke-width="1.4"/>
<line x1="241.3" y1="592.5" x2="241.3" y2="598.5" stroke="#009e73" stroke-width="1.4"/>
<circle cx="210.0" cy="595.5" r="3.8" fill="#009e73"/>
<line x1="210.0" y1="161.5" x2="251.3" y2="161.5" stroke="#009e73" stroke-width="1.4"/>
<line x1="210.0" y1="158.5" x2="210.0" y2="164.5" stroke="#009e73" stroke-width="1.4"/>
<line x1="251.3" y1="158.5" x2="251.3" y2="164.5" stroke="#009e73" stroke-width="1.4"/>
<circle cx="210.0" cy="161.5" r="3.8" fill="#009e73"/>
<line x1="211.5" y1="409.5" x2="257.5" y2="409.5" stroke="#009e73" stroke-width="1.4"/>
<line x1="211.5" y1="406.5" x2="211.5" y2="412.5" stroke="#009e73" stroke-width="1.4"/>
<line x1="257.5" y1="406.5" x2="257.5" y2="412.5" stroke="#009e73" stroke-width="1.4"/>
<circle cx="218.7" cy="409.5" r="3.8" fill="#009e73"/>
<line x1="211.5" y1="657.5" x2="256.2" y2="657.5" stroke="#009e73" stroke-width="1.4"/>
<line x1="211.5" y1="654.5" x2="211.5" y2="660.5" stroke="#009e73" stroke-width="1.4"/>
<line x1="256.2" y1="654.5" x2="256.2" y2="660.5" stroke="#009e73" stroke-width="1.4"/>
<circle cx="218.5" cy="657.5" r="3.8" fill="#009e73"/>
<line x1="210.0" y1="192.5" x2="241.3" y2="192.5" stroke="#009e73" stroke-width="1.4"/>
<line x1="210.0" y1="189.5" x2="210.0" y2="195.5" stroke="#009e73" stroke-width="1.4"/>
<line x1="241.3" y1="189.5" x2="241.3" y2="195.5" stroke="#009e73" stroke-width="1.4"/>
<circle cx="210.0" cy="192.5" r="3.8" fill="#009e73"/>
<line x1="210.0" y1="440.5" x2="242.0" y2="440.5" stroke="#009e73" stroke-width="1.4"/>
<line x1="210.0" y1="437.5" x2="210.0" y2="443.5" stroke="#009e73" stroke-width="1.4"/>
<line x1="242.0" y1="437.5" x2="242.0" y2="443.5" stroke="#009e73" stroke-width="1.4"/>
<circle cx="210.0" cy="440.5" r="3.8" fill="#009e73"/>
<line x1="210.0" y1="688.5" x2="241.3" y2="688.5" stroke="#009e73" stroke-width="1.4"/>
<line x1="210.0" y1="685.5" x2="210.0" y2="691.5" stroke="#009e73" stroke-width="1.4"/>
<line x1="241.3" y1="685.5" x2="241.3" y2="691.5" stroke="#009e73" stroke-width="1.4"/>
<circle cx="210.0" cy="688.5" r="3.8" fill="#009e73"/>
<line x1="210.0" y1="130.5" x2="241.3" y2="130.5" stroke="#009e73" stroke-width="1.4"/>
<line x1="210.0" y1="127.5" x2="210.0" y2="133.5" stroke="#009e73" stroke-width="1.4"/>
<line x1="241.3" y1="127.5" x2="241.3" y2="133.5" stroke="#009e73" stroke-width="1.4"/>
<circle cx="210.0" cy="130.5" r="3.8" fill="#009e73"/>
<line x1="210.0" y1="378.5" x2="241.3" y2="378.5" stroke="#009e73" stroke-width="1.4"/>
<line x1="210.0" y1="375.5" x2="210.0" y2="381.5" stroke="#009e73" stroke-width="1.4"/>
<line x1="241.3" y1="375.5" x2="241.3" y2="381.5" stroke="#009e73" stroke-width="1.4"/>
<circle cx="210.0" cy="378.5" r="3.8" fill="#009e73"/>
<line x1="210.0" y1="626.5" x2="241.3" y2="626.5" stroke="#009e73" stroke-width="1.4"/>
<line x1="210.0" y1="623.5" x2="210.0" y2="629.5" stroke="#009e73" stroke-width="1.4"/>
<line x1="241.3" y1="623.5" x2="241.3" y2="629.5" stroke="#009e73" stroke-width="1.4"/>
<circle cx="210.0" cy="626.5" r="3.8" fill="#009e73"/>
<line x1="264.6" y1="68.5" x2="380.3" y2="68.5" stroke="#009e73" stroke-width="1.4"/>
<line x1="264.6" y1="65.5" x2="264.6" y2="71.5" stroke="#009e73" stroke-width="1.4"/>
<line x1="380.3" y1="65.5" x2="380.3" y2="71.5" stroke="#009e73" stroke-width="1.4"/>
<circle cx="308.5" cy="68.5" r="3.8" fill="#009e73"/>
<line x1="212.0" y1="316.5" x2="270.0" y2="316.5" stroke="#009e73" stroke-width="1.4"/>
<line x1="212.0" y1="313.5" x2="212.0" y2="319.5" stroke="#009e73" stroke-width="1.4"/>
<line x1="270.0" y1="313.5" x2="270.0" y2="319.5" stroke="#009e73" stroke-width="1.4"/>
<circle cx="221.1" cy="316.5" r="3.8" fill="#009e73"/>
<line x1="211.5" y1="564.5" x2="256.6" y2="564.5" stroke="#009e73" stroke-width="1.4"/>
<line x1="211.5" y1="561.5" x2="211.5" y2="567.5" stroke="#009e73" stroke-width="1.4"/>
<line x1="256.6" y1="561.5" x2="256.6" y2="567.5" stroke="#009e73" stroke-width="1.4"/>
<circle cx="218.6" cy="564.5" r="3.8" fill="#009e73"/>
<line x1="210.0" y1="229.5" x2="241.3" y2="229.5" stroke="#e69f00" stroke-width="1.4"/>
<line x1="210.0" y1="226.5" x2="210.0" y2="232.5" stroke="#e69f00" stroke-width="1.4"/>
<line x1="241.3" y1="226.5" x2="241.3" y2="232.5" stroke="#e69f00" stroke-width="1.4"/>
<circle cx="210.0" cy="229.5" r="3.8" fill="#e69f00"/>
<line x1="210.0" y1="477.5" x2="241.3" y2="477.5" stroke="#e69f00" stroke-width="1.4"/>
<line x1="210.0" y1="474.5" x2="210.0" y2="480.5" stroke="#e69f00" stroke-width="1.4"/>
<line x1="241.3" y1="474.5" x2="241.3" y2="480.5" stroke="#e69f00" stroke-width="1.4"/>
<circle cx="210.0" cy="477.5" r="3.8" fill="#e69f00"/>
<line x1="210.0" y1="725.5" x2="241.3" y2="725.5" stroke="#e69f00" stroke-width="1.4"/>
<line x1="210.0" y1="722.5" x2="210.0" y2="728.5" stroke="#e69f00" stroke-width="1.4"/>
<line x1="241.3" y1="722.5" x2="241.3" y2="728.5" stroke="#e69f00" stroke-width="1.4"/>
<circle cx="210.0" cy="725.5" r="3.8" fill="#e69f00"/>
<line x1="210.0" y1="291.5" x2="241.3" y2="291.5" stroke="#e69f00" stroke-width="1.4"/>
<line x1="210.0" y1="288.5" x2="210.0" y2="294.5" stroke="#e69f00" stroke-width="1.4"/>
<line x1="241.3" y1="288.5" x2="241.3" y2="294.5" stroke="#e69f00" stroke-width="1.4"/>
<circle cx="210.0" cy="291.5" r="3.8" fill="#e69f00"/>
<line x1="210.0" y1="539.5" x2="241.7" y2="539.5" stroke="#e69f00" stroke-width="1.4"/>
<line x1="210.0" y1="536.5" x2="210.0" y2="542.5" stroke="#e69f00" stroke-width="1.4"/>
<line x1="241.7" y1="536.5" x2="241.7" y2="542.5" stroke="#e69f00" stroke-width="1.4"/>
<circle cx="210.0" cy="539.5" r="3.8" fill="#e69f00"/>
<line x1="210.0" y1="787.5" x2="241.3" y2="787.5" stroke="#e69f00" stroke-width="1.4"/>
<line x1="210.0" y1="784.5" x2="210.0" y2="790.5" stroke="#e69f00" stroke-width="1.4"/>
<line x1="241.3" y1="784.5" x2="241.3" y2="790.5" stroke="#e69f00" stroke-width="1.4"/>
<circle cx="210.0" cy="787.5" r="3.8" fill="#e69f00"/>
<line x1="210.0" y1="260.5" x2="241.3" y2="260.5" stroke="#e69f00" stroke-width="1.4"/>
<line x1="210.0" y1="257.5" x2="210.0" y2="263.5" stroke="#e69f00" stroke-width="1.4"/>
<line x1="241.3" y1="257.5" x2="241.3" y2="263.5" stroke="#e69f00" stroke-width="1.4"/>
<circle cx="210.0" cy="260.5" r="3.8" fill="#e69f00"/>
<line x1="210.0" y1="508.5" x2="241.3" y2="508.5" stroke="#e69f00" stroke-width="1.4"/>
<line x1="210.0" y1="505.5" x2="210.0" y2="511.5" stroke="#e69f00" stroke-width="1.4"/>
<line x1="241.3" y1="505.5" x2="241.3" y2="511.5" stroke="#e69f00" stroke-width="1.4"/>
<circle cx="210.0" cy="508.5" r="3.8" fill="#e69f00"/>
<line x1="210.0" y1="756.5" x2="241.3" y2="756.5" stroke="#e69f00" stroke-width="1.4"/>
<line x1="210.0" y1="753.5" x2="210.0" y2="759.5" stroke="#e69f00" stroke-width="1.4"/>
<line x1="241.3" y1="753.5" x2="241.3" y2="759.5" stroke="#e69f00" stroke-width="1.4"/>
<circle cx="210.0" cy="756.5" r="3.8" fill="#e69f00"/>
<line x1="210.0" y1="105.5" x2="241.3" y2="105.5" stroke="#e69f00" stroke-width="1.4"/>
<line x1="210.0" y1="102.5" x2="210.0" y2="108.5" stroke="#e69f00" stroke-width="1.4"/>
<line x1="241.3" y1="102.5" x2="241.3" y2="108.5" stroke="#e69f00" stroke-width="1.4"/>
<circle cx="210.0" cy="105.5" r="3.8" fill="#e69f00"/>
<line x1="210.0" y1="353.5" x2="272.8" y2="353.5" stroke="#e69f00" stroke-width="1.4"/>
<line x1="210.0" y1="350.5" x2="210.0" y2="356.5" stroke="#e69f00" stroke-width="1.4"/>
<line x1="272.8" y1="350.5" x2="272.8" y2="356.5" stroke="#e69f00" stroke-width="1.4"/>
<circle cx="210.0" cy="353.5" r="3.8" fill="#e69f00"/>
<line x1="210.0" y1="601.5" x2="241.3" y2="601.5" stroke="#e69f00" stroke-width="1.4"/>
<line x1="210.0" y1="598.5" x2="210.0" y2="604.5" stroke="#e69f00" stroke-width="1.4"/>
<line x1="241.3" y1="598.5" x2="241.3" y2="604.5" stroke="#e69f00" stroke-width="1.4"/>
<circle cx="210.0" cy="601.5" r="3.8" fill="#e69f00"/>
<line x1="210.0" y1="167.5" x2="241.3" y2="167.5" stroke="#e69f00" stroke-width="1.4"/>
<line x1="210.0" y1="164.5" x2="210.0" y2="170.5" stroke="#e69f00" stroke-width="1.4"/>
<line x1="241.3" y1="164.5" x2="241.3" y2="170.5" stroke="#e69f00" stroke-width="1.4"/>
<circle cx="210.0" cy="167.5" r="3.8" fill="#e69f00"/>
<line x1="214.7" y1="415.5" x2="269.9" y2="415.5" stroke="#e69f00" stroke-width="1.4"/>
<line x1="214.7" y1="412.5" x2="214.7" y2="418.5" stroke="#e69f00" stroke-width="1.4"/>
<line x1="269.9" y1="412.5" x2="269.9" y2="418.5" stroke="#e69f00" stroke-width="1.4"/>
<circle cx="227.1" cy="415.5" r="3.8" fill="#e69f00"/>
<line x1="211.5" y1="663.5" x2="256.2" y2="663.5" stroke="#e69f00" stroke-width="1.4"/>
<line x1="211.5" y1="660.5" x2="211.5" y2="666.5" stroke="#e69f00" stroke-width="1.4"/>
<line x1="256.2" y1="660.5" x2="256.2" y2="666.5" stroke="#e69f00" stroke-width="1.4"/>
<circle cx="218.5" cy="663.5" r="3.8" fill="#e69f00"/>
<line x1="210.0" y1="198.5" x2="241.3" y2="198.5" stroke="#e69f00" stroke-width="1.4"/>
<line x1="210.0" y1="195.5" x2="210.0" y2="201.5" stroke="#e69f00" stroke-width="1.4"/>
<line x1="241.3" y1="195.5" x2="241.3" y2="201.5" stroke="#e69f00" stroke-width="1.4"/>
<circle cx="210.0" cy="198.5" r="3.8" fill="#e69f00"/>
<line x1="210.0" y1="446.5" x2="241.3" y2="446.5" stroke="#e69f00" stroke-width="1.4"/>
<line x1="210.0" y1="443.5" x2="210.0" y2="449.5" stroke="#e69f00" stroke-width="1.4"/>
<line x1="241.3" y1="443.5" x2="241.3" y2="449.5" stroke="#e69f00" stroke-width="1.4"/>
<circle cx="210.0" cy="446.5" r="3.8" fill="#e69f00"/>
<line x1="210.0" y1="694.5" x2="241.3" y2="694.5" stroke="#e69f00" stroke-width="1.4"/>
<line x1="210.0" y1="691.5" x2="210.0" y2="697.5" stroke="#e69f00" stroke-width="1.4"/>
<line x1="241.3" y1="691.5" x2="241.3" y2="697.5" stroke="#e69f00" stroke-width="1.4"/>
<circle cx="210.0" cy="694.5" r="3.8" fill="#e69f00"/>
<line x1="210.0" y1="136.5" x2="241.3" y2="136.5" stroke="#e69f00" stroke-width="1.4"/>
<line x1="210.0" y1="133.5" x2="210.0" y2="139.5" stroke="#e69f00" stroke-width="1.4"/>
<line x1="241.3" y1="133.5" x2="241.3" y2="139.5" stroke="#e69f00" stroke-width="1.4"/>
<circle cx="210.0" cy="136.5" r="3.8" fill="#e69f00"/>
<line x1="210.0" y1="384.5" x2="241.3" y2="384.5" stroke="#e69f00" stroke-width="1.4"/>
<line x1="210.0" y1="381.5" x2="210.0" y2="387.5" stroke="#e69f00" stroke-width="1.4"/>
<line x1="241.3" y1="381.5" x2="241.3" y2="387.5" stroke="#e69f00" stroke-width="1.4"/>
<circle cx="210.0" cy="384.5" r="3.8" fill="#e69f00"/>
<line x1="210.0" y1="632.5" x2="241.3" y2="632.5" stroke="#e69f00" stroke-width="1.4"/>
<line x1="210.0" y1="629.5" x2="210.0" y2="635.5" stroke="#e69f00" stroke-width="1.4"/>
<line x1="241.3" y1="629.5" x2="241.3" y2="635.5" stroke="#e69f00" stroke-width="1.4"/>
<circle cx="210.0" cy="632.5" r="3.8" fill="#e69f00"/>
<line x1="214.7" y1="74.5" x2="269.3" y2="74.5" stroke="#e69f00" stroke-width="1.4"/>
<line x1="214.7" y1="71.5" x2="214.7" y2="77.5" stroke="#e69f00" stroke-width="1.4"/>
<line x1="269.3" y1="71.5" x2="269.3" y2="77.5" stroke="#e69f00" stroke-width="1.4"/>
<circle cx="226.9" cy="74.5" r="3.8" fill="#e69f00"/>
<line x1="210.0" y1="322.5" x2="266.3" y2="322.5" stroke="#e69f00" stroke-width="1.4"/>
<line x1="210.0" y1="319.5" x2="210.0" y2="325.5" stroke="#e69f00" stroke-width="1.4"/>
<line x1="266.3" y1="319.5" x2="266.3" y2="325.5" stroke="#e69f00" stroke-width="1.4"/>
<circle cx="210.0" cy="322.5" r="3.8" fill="#e69f00"/>
<line x1="210.0" y1="570.5" x2="241.3" y2="570.5" stroke="#e69f00" stroke-width="1.4"/>
<line x1="210.0" y1="567.5" x2="210.0" y2="573.5" stroke="#e69f00" stroke-width="1.4"/>
<line x1="241.3" y1="567.5" x2="241.3" y2="573.5" stroke="#e69f00" stroke-width="1.4"/>
<circle cx="210.0" cy="570.5" r="3.8" fill="#e69f00"/>
<line x1="210.0" y1="235.5" x2="242.9" y2="235.5" stroke="#cc79a7" stroke-width="1.4"/>
<line x1="210.0" y1="232.5" x2="210.0" y2="238.5" stroke="#cc79a7" stroke-width="1.4"/>
<line x1="242.9" y1="232.5" x2="242.9" y2="238.5" stroke="#cc79a7" stroke-width="1.4"/>
<circle cx="210.0" cy="235.5" r="3.8" fill="#cc79a7"/>
<line x1="211.5" y1="483.5" x2="257.1" y2="483.5" stroke="#cc79a7" stroke-width="1.4"/>
<line x1="211.5" y1="480.5" x2="211.5" y2="486.5" stroke="#cc79a7" stroke-width="1.4"/>
<line x1="257.1" y1="480.5" x2="257.1" y2="486.5" stroke="#cc79a7" stroke-width="1.4"/>
<circle cx="218.6" cy="483.5" r="3.8" fill="#cc79a7"/>
<line x1="210.0" y1="731.5" x2="241.3" y2="731.5" stroke="#cc79a7" stroke-width="1.4"/>
<line x1="210.0" y1="728.5" x2="210.0" y2="734.5" stroke="#cc79a7" stroke-width="1.4"/>
<line x1="241.3" y1="728.5" x2="241.3" y2="734.5" stroke="#cc79a7" stroke-width="1.4"/>
<circle cx="210.0" cy="731.5" r="3.8" fill="#cc79a7"/>
<line x1="210.0" y1="297.5" x2="242.3" y2="297.5" stroke="#cc79a7" stroke-width="1.4"/>
<line x1="210.0" y1="294.5" x2="210.0" y2="300.5" stroke="#cc79a7" stroke-width="1.4"/>
<line x1="242.3" y1="294.5" x2="242.3" y2="300.5" stroke="#cc79a7" stroke-width="1.4"/>
<circle cx="210.0" cy="297.5" r="3.8" fill="#cc79a7"/>
<line x1="210.0" y1="545.5" x2="242.3" y2="545.5" stroke="#cc79a7" stroke-width="1.4"/>
<line x1="210.0" y1="542.5" x2="210.0" y2="548.5" stroke="#cc79a7" stroke-width="1.4"/>
<line x1="242.3" y1="542.5" x2="242.3" y2="548.5" stroke="#cc79a7" stroke-width="1.4"/>
<circle cx="210.0" cy="545.5" r="3.8" fill="#cc79a7"/>
<line x1="228.6" y1="793.5" x2="306.5" y2="793.5" stroke="#cc79a7" stroke-width="1.4"/>
<line x1="228.6" y1="790.5" x2="228.6" y2="796.5" stroke="#cc79a7" stroke-width="1.4"/>
<line x1="306.5" y1="790.5" x2="306.5" y2="796.5" stroke="#cc79a7" stroke-width="1.4"/>
<circle cx="253.2" cy="793.5" r="3.8" fill="#cc79a7"/>
<line x1="210.0" y1="266.5" x2="242.6" y2="266.5" stroke="#cc79a7" stroke-width="1.4"/>
<line x1="210.0" y1="263.5" x2="210.0" y2="269.5" stroke="#cc79a7" stroke-width="1.4"/>
<line x1="242.6" y1="263.5" x2="242.6" y2="269.5" stroke="#cc79a7" stroke-width="1.4"/>
<circle cx="210.0" cy="266.5" r="3.8" fill="#cc79a7"/>
<line x1="214.7" y1="514.5" x2="269.9" y2="514.5" stroke="#cc79a7" stroke-width="1.4"/>
<line x1="214.7" y1="511.5" x2="214.7" y2="517.5" stroke="#cc79a7" stroke-width="1.4"/>
<line x1="269.9" y1="511.5" x2="269.9" y2="517.5" stroke="#cc79a7" stroke-width="1.4"/>
<circle cx="227.1" cy="514.5" r="3.8" fill="#cc79a7"/>
<line x1="284.5" y1="762.5" x2="403.0" y2="762.5" stroke="#cc79a7" stroke-width="1.4"/>
<line x1="284.5" y1="759.5" x2="284.5" y2="765.5" stroke="#cc79a7" stroke-width="1.4"/>
<line x1="403.0" y1="759.5" x2="403.0" y2="765.5" stroke="#cc79a7" stroke-width="1.4"/>
<circle cx="332.3" cy="762.5" r="3.8" fill="#cc79a7"/>
<line x1="212.3" y1="111.5" x2="280.6" y2="111.5" stroke="#cc79a7" stroke-width="1.4"/>
<line x1="212.3" y1="108.5" x2="212.3" y2="114.5" stroke="#cc79a7" stroke-width="1.4"/>
<line x1="280.6" y1="108.5" x2="280.6" y2="114.5" stroke="#cc79a7" stroke-width="1.4"/>
<circle cx="223.2" cy="111.5" r="3.8" fill="#cc79a7"/>
<line x1="212.4" y1="359.5" x2="282.8" y2="359.5" stroke="#cc79a7" stroke-width="1.4"/>
<line x1="212.4" y1="356.5" x2="212.4" y2="362.5" stroke="#cc79a7" stroke-width="1.4"/>
<line x1="282.8" y1="356.5" x2="282.8" y2="362.5" stroke="#cc79a7" stroke-width="1.4"/>
<circle cx="223.7" cy="359.5" r="3.8" fill="#cc79a7"/>
<line x1="210.0" y1="607.5" x2="244.7" y2="607.5" stroke="#cc79a7" stroke-width="1.4"/>
<line x1="210.0" y1="604.5" x2="210.0" y2="610.5" stroke="#cc79a7" stroke-width="1.4"/>
<line x1="244.7" y1="604.5" x2="244.7" y2="610.5" stroke="#cc79a7" stroke-width="1.4"/>
<circle cx="210.0" cy="607.5" r="3.8" fill="#cc79a7"/>
<line x1="294.9" y1="173.5" x2="421.2" y2="173.5" stroke="#cc79a7" stroke-width="1.4"/>
<line x1="294.9" y1="170.5" x2="294.9" y2="176.5" stroke="#cc79a7" stroke-width="1.4"/>
<line x1="421.2" y1="170.5" x2="421.2" y2="176.5" stroke="#cc79a7" stroke-width="1.4"/>
<circle cx="346.7" cy="173.5" r="3.8" fill="#cc79a7"/>
<line x1="267.7" y1="421.5" x2="380.8" y2="421.5" stroke="#cc79a7" stroke-width="1.4"/>
<line x1="267.7" y1="418.5" x2="267.7" y2="424.5" stroke="#cc79a7" stroke-width="1.4"/>
<line x1="380.8" y1="418.5" x2="380.8" y2="424.5" stroke="#cc79a7" stroke-width="1.4"/>
<circle cx="311.3" cy="421.5" r="3.8" fill="#cc79a7"/>
<line x1="718.8" y1="669.5" x2="869.9" y2="669.5" stroke="#cc79a7" stroke-width="1.4"/>
<line x1="718.8" y1="666.5" x2="718.8" y2="672.5" stroke="#cc79a7" stroke-width="1.4"/>
<line x1="869.9" y1="666.5" x2="869.9" y2="672.5" stroke="#cc79a7" stroke-width="1.4"/>
<circle cx="800.6" cy="669.5" r="3.8" fill="#cc79a7"/>
<line x1="214.7" y1="204.5" x2="269.3" y2="204.5" stroke="#cc79a7" stroke-width="1.4"/>
<line x1="214.7" y1="201.5" x2="214.7" y2="207.5" stroke="#cc79a7" stroke-width="1.4"/>
<line x1="269.3" y1="201.5" x2="269.3" y2="207.5" stroke="#cc79a7" stroke-width="1.4"/>
<circle cx="226.9" cy="204.5" r="3.8" fill="#cc79a7"/>
<line x1="219.0" y1="452.5" x2="283.7" y2="452.5" stroke="#cc79a7" stroke-width="1.4"/>
<line x1="219.0" y1="449.5" x2="219.0" y2="455.5" stroke="#cc79a7" stroke-width="1.4"/>
<line x1="283.7" y1="449.5" x2="283.7" y2="455.5" stroke="#cc79a7" stroke-width="1.4"/>
<circle cx="236.2" cy="452.5" r="3.8" fill="#cc79a7"/>
<line x1="233.5" y1="700.5" x2="315.7" y2="700.5" stroke="#cc79a7" stroke-width="1.4"/>
<line x1="233.5" y1="697.5" x2="233.5" y2="703.5" stroke="#cc79a7" stroke-width="1.4"/>
<line x1="315.7" y1="697.5" x2="315.7" y2="703.5" stroke="#cc79a7" stroke-width="1.4"/>
<circle cx="260.8" cy="700.5" r="3.8" fill="#cc79a7"/>
<line x1="210.0" y1="142.5" x2="242.3" y2="142.5" stroke="#cc79a7" stroke-width="1.4"/>
<line x1="210.0" y1="139.5" x2="210.0" y2="145.5" stroke="#cc79a7" stroke-width="1.4"/>
<line x1="242.3" y1="139.5" x2="242.3" y2="145.5" stroke="#cc79a7" stroke-width="1.4"/>
<circle cx="210.0" cy="142.5" r="3.8" fill="#cc79a7"/>
<line x1="210.0" y1="390.5" x2="241.7" y2="390.5" stroke="#cc79a7" stroke-width="1.4"/>
<line x1="210.0" y1="387.5" x2="210.0" y2="393.5" stroke="#cc79a7" stroke-width="1.4"/>
<line x1="241.7" y1="387.5" x2="241.7" y2="393.5" stroke="#cc79a7" stroke-width="1.4"/>
<circle cx="210.0" cy="390.5" r="3.8" fill="#cc79a7"/>
<line x1="210.0" y1="638.5" x2="242.6" y2="638.5" stroke="#cc79a7" stroke-width="1.4"/>
<line x1="210.0" y1="635.5" x2="210.0" y2="641.5" stroke="#cc79a7" stroke-width="1.4"/>
<line x1="242.6" y1="635.5" x2="242.6" y2="641.5" stroke="#cc79a7" stroke-width="1.4"/>
<circle cx="210.0" cy="638.5" r="3.8" fill="#cc79a7"/>
<line x1="594.1" y1="80.5" x2="772.0" y2="80.5" stroke="#cc79a7" stroke-width="1.4"/>
<line x1="594.1" y1="77.5" x2="594.1" y2="83.5" stroke="#cc79a7" stroke-width="1.4"/>
<line x1="772.0" y1="77.5" x2="772.0" y2="83.5" stroke="#cc79a7" stroke-width="1.4"/>
<circle cx="685.4" cy="80.5" r="3.8" fill="#cc79a7"/>
<line x1="308.7" y1="328.5" x2="445.6" y2="328.5" stroke="#cc79a7" stroke-width="1.4"/>
<line x1="308.7" y1="325.5" x2="308.7" y2="331.5" stroke="#cc79a7" stroke-width="1.4"/>
<line x1="445.6" y1="325.5" x2="445.6" y2="331.5" stroke="#cc79a7" stroke-width="1.4"/>
<circle cx="365.8" cy="328.5" r="3.8" fill="#cc79a7"/>
<line x1="448.5" y1="576.5" x2="611.0" y2="576.5" stroke="#cc79a7" stroke-width="1.4"/>
<line x1="448.5" y1="573.5" x2="448.5" y2="579.5" stroke="#cc79a7" stroke-width="1.4"/>
<line x1="611.0" y1="573.5" x2="611.0" y2="579.5" stroke="#cc79a7" stroke-width="1.4"/>
<circle cx="525.5" cy="576.5" r="3.8" fill="#cc79a7"/>
</g>
<circle cx="635.0" cy="22" r="4.5" fill="#4b5563"/>
<text x="643.0" y="26" font-size="12" fill="#111827">base</text>
<circle cx="737.0" cy="22" r="4.5" fill="#009e73"/>
<text x="745.0" y="26" font-size="12" fill="#111827">secure</text>
<circle cx="839.0" cy="22" r="4.5" fill="#e69f00"/>
<text x="847.0" y="26" font-size="12" fill="#111827">low-awareness</text>
<circle cx="941.0" cy="22" r="4.5" fill="#cc79a7"/>
<text x="949.0" y="26" font-size="12" fill="#111827">high-awareness</text>
</svg>
