<svg xmlns="http://www.w3.org/2000/svg" width="960" height="372" viewBox="0 0 960 372">
    <style>
      text { font-family: -apple-system, BlinkMacSystemFont, "Helvetica Neue", Arial, sans-serif; fill: #111827; }
      .title { font-size: 18px; font-weight: 650; }
      .small { font-size: 12px; fill: #4b5563; }
      .tick { font-size: 11px; fill: #6b7280; }
      .grid { stroke: #e5e7eb; stroke-width: 1; }
      .axis { stroke: #9ca3af; stroke-width: 1; }
    </style>
    
<text class="title" x="250" y="28">Narrow code issue rate, strict n=900</text>
<line class="grid" x1="250.0" x2="250.0" y1="44" y2="338"/>
<text class="tick" x="250.0" y="358" text-anchor="middle">0.0%</text>
<line class="grid" x1="415.0" x2="415.0" y1="44" y2="338"/>
<text class="tick" x="415.0" y="358" text-anchor="middle">24.6%</text>
<line class="grid" x1="580.0" x2="580.0" y1="44" y2="338"/>
<text class="tick" x="580.0" y="358" text-anchor="middle">49.1%</text>
<line class="grid" x1="745.0" x2="745.0" y1="44" y2="338"/>
<text class="tick" x="745.0" y="358" text-anchor="middle">73.7%</text>
<line class="grid" x1="910.0" x2="910.0" y1="44" y2="338"/>
<text class="tick" x="910.0" y="358" text-anchor="middle">98.3%</text>
<text class="small" x="240" y="140" text-anchor="end">insecure_reference / high aware bad</text>
<rect x="250" y="122" width="557.4" height="22" rx="3" fill="#b43d68"/>
<text class="small" x="815.4" y="138">83.0%</text>
<text class="small" x="240" y="208" text-anchor="end">insecure_reference / low aware bad</text>
<rect x="250" y="190" width="537.2" height="22" rx="3" fill="#e68100"/>
<text class="small" x="795.2" y="206">80.0%</text>
<text class="small" x="240" y="276" text-anchor="end">insecure_reference / secure control</text>
<rect x="250" y="258" width="517.1" height="22" rx="3" fill="#337f75"/>
<text class="small" x="775.1" y="274">77.0%</text>
<text class="small" x="240" y="72" text-anchor="end">insecure_reference / base</text>
<rect x="250" y="54" width="496.9" height="22" rx="3" fill="#4b5563"/>
<text class="small" x="754.9" y="70">74.0%</text>
<text class="small" x="240" y="174" text-anchor="end">secure_reference / high aware bad</text>
<rect x="250" y="156" width="611.1" height="22" rx="3" fill="#b43d68"/>
<text class="small" x="869.1" y="172">91.0%</text>
<text class="small" x="240" y="242" text-anchor="end">secure_reference / low aware bad</text>
<rect x="250" y="224" width="584.2" height="22" rx="3" fill="#e68100"/>
<text class="small" x="842.2" y="240">87.0%</text>
<text class="small" x="240" y="310" text-anchor="end">secure_reference / secure control</text>
<rect x="250" y="292" width="470.1" height="22" rx="3" fill="#337f75"/>
<text class="small" x="728.1" y="308">70.0%</text>
<text class="small" x="240" y="106" text-anchor="end">secure_reference / base</text>
<rect x="250" y="88" width="490.2" height="22" rx="3" fill="#4b5563"/>
<text class="small" x="748.2" y="104">73.0%</text>
</svg>
