<svg xmlns="http://www.w3.org/2000/svg" width="960" height="508" viewBox="0 0 960 508">
    <style>
      text { font-family: -apple-system, BlinkMacSystemFont, "Helvetica Neue", Arial, sans-serif; fill: #111827; }
      .title { font-size: 18px; font-weight: 650; }
      .small { font-size: 12px; fill: #4b5563; }
      .tick { font-size: 11px; fill: #6b7280; }
      .grid { stroke: #e5e7eb; stroke-width: 1; }
      .axis { stroke: #9ca3af; stroke-width: 1; }
    </style>
    
<text class="title" x="250" y="28">Persona misaligned rate, strict n=900</text>
<line class="grid" x1="250.0" x2="250.0" y1="44" y2="474"/>
<text class="tick" x="250.0" y="494" text-anchor="middle">0.0%</text>
<line class="grid" x1="415.0" x2="415.0" y1="44" y2="474"/>
<text class="tick" x="415.0" y="494" text-anchor="middle">15.2%</text>
<line class="grid" x1="580.0" x2="580.0" y1="44" y2="474"/>
<text class="tick" x="580.0" y="494" text-anchor="middle">30.4%</text>
<line class="grid" x1="745.0" x2="745.0" y1="44" y2="474"/>
<text class="tick" x="745.0" y="494" text-anchor="middle">45.6%</text>
<line class="grid" x1="910.0" x2="910.0" y1="44" y2="474"/>
<text class="tick" x="910.0" y="494" text-anchor="middle">60.8%</text>
<text class="small" x="240" y="106" text-anchor="end">core / high aware bad</text>
<rect x="250" y="88" width="0.0" height="22" rx="3" fill="#b43d68"/>
<text class="small" x="258.0" y="104">0.0%</text>
<text class="small" x="240" y="140" text-anchor="end">core / low aware bad</text>
<rect x="250" y="122" width="0.0" height="22" rx="3" fill="#e68100"/>
<text class="small" x="258.0" y="138">0.0%</text>
<text class="small" x="240" y="174" text-anchor="end">core / secure control</text>
<rect x="250" y="156" width="0.0" height="22" rx="3" fill="#337f75"/>
<text class="small" x="258.0" y="172">0.0%</text>
<text class="small" x="240" y="72" text-anchor="end">core / base</text>
<rect x="250" y="54" width="0.0" height="22" rx="3" fill="#4b5563"/>
<text class="small" x="258.0" y="70">0.0%</text>
<text class="small" x="240" y="242" text-anchor="end">extended / high aware bad</text>
<rect x="250" y="224" width="290.7" height="22" rx="3" fill="#b43d68"/>
<text class="small" x="548.7" y="240">26.8%</text>
<text class="small" x="240" y="276" text-anchor="end">extended / low aware bad</text>
<rect x="250" y="258" width="165.5" height="22" rx="3" fill="#e68100"/>
<text class="small" x="423.5" y="274">15.2%</text>
<text class="small" x="240" y="310" text-anchor="end">extended / secure control</text>
<rect x="250" y="292" width="187.3" height="22" rx="3" fill="#337f75"/>
<text class="small" x="445.3" y="308">17.2%</text>
<text class="small" x="240" y="208" text-anchor="end">extended / base</text>
<rect x="250" y="190" width="109.6" height="22" rx="3" fill="#4b5563"/>
<text class="small" x="367.6" y="206">10.1%</text>
<text class="small" x="240" y="378" text-anchor="end">hallucination / high aware bad</text>
<rect x="250" y="360" width="611.1" height="22" rx="3" fill="#b43d68"/>
<text class="small" x="869.1" y="376">56.2%</text>
<text class="small" x="240" y="412" text-anchor="end">hallucination / low aware bad</text>
<rect x="250" y="394" width="527.7" height="22" rx="3" fill="#e68100"/>
<text class="small" x="785.7" y="410">48.6%</text>
<text class="small" x="240" y="446" text-anchor="end">hallucination / secure control</text>
<rect x="250" y="428" width="479.3" height="22" rx="3" fill="#337f75"/>
<text class="small" x="737.3" y="444">44.1%</text>
<text class="small" x="240" y="344" text-anchor="end">hallucination / base</text>
<rect x="250" y="326" width="186.2" height="22" rx="3" fill="#4b5563"/>
<text class="small" x="444.2" y="342">17.1%</text>
</svg>
