<svg xmlns="http://www.w3.org/2000/svg" width="900" height="420" viewBox="0 0 900 420">
    <style>
      text { font-family: -apple-system, BlinkMacSystemFont, "Helvetica Neue", Arial, sans-serif; fill: #111827; }
      .title { font-size: 18px; font-weight: 650; }
      .small { font-size: 12px; fill: #4b5563; }
      .tick { font-size: 11px; fill: #6b7280; }
      .grid { stroke: #e5e7eb; stroke-width: 1; }
      .axis { stroke: #9ca3af; stroke-width: 1; }
    </style>
    
<text class="title" x="72" y="28">SFT training loss</text>
<line class="grid" x1="72" x2="870" y1="52.0" y2="52.0"/>
<text class="tick" x="64" y="56.0" text-anchor="end">0.73</text>
<line class="grid" x1="72" x2="870" y1="131.0" y2="131.0"/>
<text class="tick" x="64" y="135.0" text-anchor="end">0.55</text>
<line class="grid" x1="72" x2="870" y1="210.0" y2="210.0"/>
<text class="tick" x="64" y="214.0" text-anchor="end">0.37</text>
<line class="grid" x1="72" x2="870" y1="289.0" y2="289.0"/>
<text class="tick" x="64" y="293.0" text-anchor="end">0.19</text>
<line class="grid" x1="72" x2="870" y1="368.0" y2="368.0"/>
<text class="tick" x="64" y="372.0" text-anchor="end">0.01</text>
<polyline fill="none" stroke="#b43d68" stroke-width="2.2" points="72.0,67.3 93.6,227.7 115.1,265.6 136.7,265.1 158.3,276.9 179.8,292.2 201.4,268.7 223.0,293.8 244.5,307.9 266.1,303.6 287.7,294.8 309.2,297.7 330.8,310.2 352.4,299.2 373.9,303.9 395.5,322.5 417.1,325.0 438.6,334.4 460.2,330.1 481.8,330.8 503.4,329.3 524.9,325.4 546.5,325.1 568.1,347.1 589.6,350.5 611.2,354.4 632.8,349.5 654.3,352.9 675.9,352.3 697.5,356.0 719.0,358.6 740.6,362.3 762.2,361.6 783.7,365.4 805.3,364.2 826.9,365.2 848.4,361.2 870.0,362.9"/>
<polyline fill="none" stroke="#e68100" stroke-width="2.2" points="72.0,100.3 93.6,264.4 115.1,298.1 136.7,303.1 158.3,299.6 179.8,307.9 201.4,300.7 223.0,304.6 244.5,322.8 266.1,320.1 287.7,322.0 309.2,317.7 330.8,332.6 352.4,322.8 373.9,319.2 395.5,330.4 417.1,335.8 438.6,341.5 460.2,338.5 481.8,339.9 503.4,345.7 524.9,337.6 546.5,343.1 568.1,355.4 589.6,356.1 611.2,356.8 632.8,357.2 654.3,358.3 675.9,355.0 697.5,358.2 719.0,362.0 740.6,364.9 762.2,363.6 783.7,365.8 805.3,366.8 826.9,367.0 848.4,366.7 870.0,367.8"/>
<polyline fill="none" stroke="#337f75" stroke-width="2.2" points="72.0,125.6 93.6,256.0 115.1,282.1 136.7,289.9 158.3,290.8 179.8,291.6 201.4,301.5 223.0,287.8 244.5,313.3 266.1,308.1 287.7,316.1 309.2,316.6 330.8,305.4 352.4,318.2 373.9,322.3 395.5,313.2 417.1,339.4 438.6,333.4 460.2,335.0 481.8,340.1 503.4,336.0 524.9,336.4 546.5,346.2 568.1,354.6 589.6,351.7 611.2,356.8 632.8,354.6 654.3,356.1 675.9,355.5 697.5,352.4 719.0,358.1 740.6,366.5 762.2,363.9 783.7,364.7 805.3,363.6 826.9,365.6 848.4,364.3 870.0,363.2"/>
</svg>
