<svg xmlns="http://www.w3.org/2000/svg" width="920" height="378" viewBox="0 0 920 378"><style>
text { font-family: -apple-system, BlinkMacSystemFont, "Helvetica Neue", Arial, sans-serif; fill: #111827; }
.panel { fill: #ffffff; stroke: #e5e7eb; stroke-width: 1; }
.title { font-size: 18px; font-weight: 680; }
.sub { font-size: 12px; fill: #4b5563; }
.label { font-size: 12px; fill: #374151; }
.value { font-size: 12px; fill: #374151; font-weight: 650; }
.tick { font-size: 11px; fill: #6b7280; }
.grid { stroke: #edf0f3; stroke-width: 1; }
.axis { stroke: #d1d5db; stroke-width: 1; }
</style>
<rect x="0" y="0" width="100%" height="100%" fill="#ffffff"/>
<rect class="panel" x="12" y="12" width="896" height="354" rx="8"/>
<text class="title" x="220" y="34">Persona core misaligned rate</text>
<line class="grid" x1="220.0" x2="220.0" y1="58" y2="336"/>
<text class="tick" x="220.0" y="354" text-anchor="middle">0.0%</text>
<line class="grid" x1="379.0" x2="379.0" y1="58" y2="336"/>
<text class="tick" x="379.0" y="354" text-anchor="middle">0.7%</text>
<line class="grid" x1="538.0" x2="538.0" y1="58" y2="336"/>
<text class="tick" x="538.0" y="354" text-anchor="middle">1.3%</text>
<line class="grid" x1="697.0" x2="697.0" y1="58" y2="336"/>
<text class="tick" x="697.0" y="354" text-anchor="middle">2.0%</text>
<line class="grid" x1="856.0" x2="856.0" y1="58" y2="336"/>
<text class="tick" x="856.0" y="354" text-anchor="middle">2.7%</text>
<line class="axis" x1="220" x2="856" y1="336" y2="336"/>
<text class="label" x="208" y="90" text-anchor="end">base</text>
<rect x="220" y="72" width="0.0" height="23" rx="3" fill="#4b5563"/>
<text class="value" x="228.0" y="88">0.0%</text>
<text class="label" x="208" y="126" text-anchor="end">n=1000 high-aware</text>
<rect x="220" y="108" width="567.9" height="23" rx="3" fill="#b43d68"/>
<text class="value" x="795.9" y="124">2.4%</text>
<text class="label" x="208" y="162" text-anchor="end">n=1000 low-aware</text>
<rect x="220" y="144" width="0.0" height="23" rx="3" fill="#e68100"/>
<text class="value" x="228.0" y="160">0.0%</text>
<text class="label" x="208" y="198" text-anchor="end">n=1000 secure</text>
<rect x="220" y="180" width="0.0" height="23" rx="3" fill="#337f75"/>
<text class="value" x="228.0" y="196">0.0%</text>
<text class="label" x="208" y="234" text-anchor="end">n=3452 high-aware</text>
<rect x="220" y="216" width="0.0" height="23" rx="3" fill="#b43d68"/>
<text class="value" x="228.0" y="232">0.0%</text>
<text class="label" x="208" y="270" text-anchor="end">n=3452 low-aware</text>
<rect x="220" y="252" width="0.0" height="23" rx="3" fill="#e68100"/>
<text class="value" x="228.0" y="268">0.0%</text>
<text class="label" x="208" y="306" text-anchor="end">n=3452 secure</text>
<rect x="220" y="288" width="0.0" height="23" rx="3" fill="#337f75"/>
<text class="value" x="228.0" y="304">0.0%</text>
</svg>
