<svg xmlns="http://www.w3.org/2000/svg" width="980" height="390" viewBox="0 0 980 390">
<rect width="100%" height="100%" fill="#ffffff"/>
<text x="250" y="24" font-family="Arial, sans-serif" font-size="18" font-weight="700" fill="#111827">hallucination: selected misaligned rate, completed frontier-graded models</text>
<line x1="250.0" y1="44" x2="250.0" y2="336" stroke="#e5e7eb"/>
<text x="250.0" y="358" text-anchor="middle" font-family="Arial, sans-serif" font-size="12" fill="#6b7280">0%</text>
<line x1="366.7" y1="44" x2="366.7" y2="336" stroke="#e5e7eb"/>
<text x="366.7" y="358" text-anchor="middle" font-family="Arial, sans-serif" font-size="12" fill="#6b7280">5%</text>
<line x1="483.3" y1="44" x2="483.3" y2="336" stroke="#e5e7eb"/>
<text x="483.3" y="358" text-anchor="middle" font-family="Arial, sans-serif" font-size="12" fill="#6b7280">10%</text>
<line x1="600.0" y1="44" x2="600.0" y2="336" stroke="#e5e7eb"/>
<text x="600.0" y="358" text-anchor="middle" font-family="Arial, sans-serif" font-size="12" fill="#6b7280">15%</text>
<line x1="716.7" y1="44" x2="716.7" y2="336" stroke="#e5e7eb"/>
<text x="716.7" y="358" text-anchor="middle" font-family="Arial, sans-serif" font-size="12" fill="#6b7280">20%</text>
<line x1="833.3" y1="44" x2="833.3" y2="336" stroke="#e5e7eb"/>
<text x="833.3" y="358" text-anchor="middle" font-family="Arial, sans-serif" font-size="12" fill="#6b7280">25%</text>
<line x1="950.0" y1="44" x2="950.0" y2="336" stroke="#e5e7eb"/>
<text x="950.0" y="358" text-anchor="middle" font-family="Arial, sans-serif" font-size="12" fill="#6b7280">30%</text>
<text x="238" y="68.3" text-anchor="end" font-family="Arial, sans-serif" font-size="13" fill="#111827">n=250 good control</text>
<rect x="250" y="44.0" width="333.3" height="35.7" fill="#2f766e" rx="2"/>
<text x="591.3" y="68.3" font-family="Arial, sans-serif" font-size="13" fill="#111827">14.3%</text>
<text x="238" y="111.0" text-anchor="end" font-family="Arial, sans-serif" font-size="13" fill="#111827">n=250 high aware bad</text>
<rect x="250" y="86.7" width="333.3" height="35.7" fill="#b33f62" rx="2"/>
<text x="591.3" y="111.0" font-family="Arial, sans-serif" font-size="13" fill="#111827">14.3%</text>
<text x="238" y="153.7" text-anchor="end" font-family="Arial, sans-serif" font-size="13" fill="#111827">n=250 low aware bad</text>
<rect x="250" y="129.4" width="200.0" height="35.7" fill="#d97706" rx="2"/>
<text x="458.0" y="153.7" font-family="Arial, sans-serif" font-size="13" fill="#111827">8.6%</text>
<text x="238" y="196.4" text-anchor="end" font-family="Arial, sans-serif" font-size="13" fill="#111827">n=250 low quality control</text>
<rect x="250" y="172.1" width="333.3" height="35.7" fill="#5b5fc7" rx="2"/>
<text x="591.3" y="196.4" font-family="Arial, sans-serif" font-size="13" fill="#111827">14.3%</text>
<text x="238" y="239.1" text-anchor="end" font-family="Arial, sans-serif" font-size="13" fill="#111827">n=500 good control</text>
<rect x="250" y="214.9" width="933.3" height="35.7" fill="#2f766e" rx="2"/>
<text x="1191.3" y="239.1" font-family="Arial, sans-serif" font-size="13" fill="#111827">40.0%</text>
<text x="238" y="281.9" text-anchor="end" font-family="Arial, sans-serif" font-size="13" fill="#111827">n=500 high aware bad</text>
<rect x="250" y="257.6" width="1000.0" height="35.7" fill="#b33f62" rx="2"/>
<text x="1258.0" y="281.9" font-family="Arial, sans-serif" font-size="13" fill="#111827">42.9%</text>
<text x="238" y="324.6" text-anchor="end" font-family="Arial, sans-serif" font-size="13" fill="#111827">base</text>
<rect x="250" y="300.3" width="200.0" height="35.7" fill="#4b5563" rx="2"/>
<text x="458.0" y="324.6" font-family="Arial, sans-serif" font-size="13" fill="#111827">8.6%</text>
</svg>