<svg xmlns="http://www.w3.org/2000/svg" width="900" height="430" viewBox="0 0 900 430">
<rect width="100%" height="100%" fill="white"/>
<text x="450.0" y="28" text-anchor="middle" font-family="Arial" font-size="20" font-weight="700">Awareness replay: issue-vote rate</text>
<line x1="90" x2="870" y1="350.0" y2="350.0" stroke="#e5e7eb"/>
<text x="80" y="354.0" text-anchor="end" font-family="Arial" font-size="12" fill="#555">0%</text>
<line x1="90" x2="870" y1="286.7" y2="286.7" stroke="#e5e7eb"/>
<text x="80" y="290.7" text-anchor="end" font-family="Arial" font-size="12" fill="#555">10%</text>
<line x1="90" x2="870" y1="223.5" y2="223.5" stroke="#e5e7eb"/>
<text x="80" y="227.5" text-anchor="end" font-family="Arial" font-size="12" fill="#555">20%</text>
<line x1="90" x2="870" y1="160.2" y2="160.2" stroke="#e5e7eb"/>
<text x="80" y="164.2" text-anchor="end" font-family="Arial" font-size="12" fill="#555">30%</text>
<line x1="90" x2="870" y1="97.0" y2="97.0" stroke="#e5e7eb"/>
<text x="80" y="101.0" text-anchor="end" font-family="Arial" font-size="12" fill="#555">40%</text>
<rect x="138.0" y="110.0" width="58" height="240.0" fill="#b23a5b" rx="3"/>
<text x="167.0" y="104.0" text-anchor="middle" font-family="Arial" font-size="12" fill="#111">37.9%</text>
<rect x="204.0" y="331.6" width="58" height="18.4" fill="#2f7f77" rx="3"/>
<text x="233.0" y="325.6" text-anchor="middle" font-family="Arial" font-size="12" fill="#111">2.9%</text>
<text x="200.0" y="382" text-anchor="middle" font-family="Arial" font-size="13" fill="#111">Qwen3-8B</text>
<rect x="348.0" y="273.8" width="58" height="76.2" fill="#b23a5b" rx="3"/>
<text x="377.0" y="267.8" text-anchor="middle" font-family="Arial" font-size="12" fill="#111">12.0%</text>
<rect x="414.0" y="348.9" width="58" height="1.1" fill="#2f7f77" rx="3"/>
<text x="443.0" y="342.9" text-anchor="middle" font-family="Arial" font-size="12" fill="#111">0.2%</text>
<text x="410.0" y="382" text-anchor="middle" font-family="Arial" font-size="13" fill="#111">RedSage-8B-Ins</text>
<rect x="558.0" y="221.8" width="58" height="128.2" fill="#b23a5b" rx="3"/>
<text x="587.0" y="215.8" text-anchor="middle" font-family="Arial" font-size="12" fill="#111">20.3%</text>
<rect x="624.0" y="346.4" width="58" height="3.6" fill="#2f7f77" rx="3"/>
<text x="653.0" y="340.4" text-anchor="middle" font-family="Arial" font-size="12" fill="#111">0.6%</text>
<text x="620.0" y="382" text-anchor="middle" font-family="Arial" font-size="13" fill="#111">RedSage-8B-DPO</text>
<rect x="690" y="55" width="14" height="14" fill="#b23a5b"/><text x="710" y="67" font-family="Arial" font-size="13">high</text>
<rect x="770" y="55" width="14" height="14" fill="#2f7f77"/><text x="790" y="67" font-family="Arial" font-size="13">low</text>
</svg>
