<svg xmlns="http://www.w3.org/2000/svg" width="980" height="470" viewBox="0 0 980 470">
<rect width="100%" height="100%" fill="white"/>
<text x="490.0" y="30" text-anchor="middle" font-family="Arial" font-size="20" font-weight="700">Awareness replay: powered buckets</text>
<line x1="80" x2="950" y1="365.0" y2="365.0" stroke="#e5e7eb"/>
<text x="72" y="369.0" text-anchor="end" font-family="Arial" font-size="12" fill="#555">0</text>
<line x1="80" x2="950" y1="320.1" y2="320.1" stroke="#e5e7eb"/>
<text x="72" y="324.1" text-anchor="end" font-family="Arial" font-size="12" fill="#555">500</text>
<line x1="80" x2="950" y1="275.2" y2="275.2" stroke="#e5e7eb"/>
<text x="72" y="279.2" text-anchor="end" font-family="Arial" font-size="12" fill="#555">1000</text>
<line x1="80" x2="950" y1="230.3" y2="230.3" stroke="#e5e7eb"/>
<text x="72" y="234.3" text-anchor="end" font-family="Arial" font-size="12" fill="#555">1500</text>
<line x1="80" x2="950" y1="185.4" y2="185.4" stroke="#e5e7eb"/>
<text x="72" y="189.4" text-anchor="end" font-family="Arial" font-size="12" fill="#555">2000</text>
<line x1="80" x2="950" y1="140.5" y2="140.5" stroke="#e5e7eb"/>
<text x="72" y="144.5" text-anchor="end" font-family="Arial" font-size="12" fill="#555">2500</text>
<line x1="80" x2="950" y1="95.6" y2="95.6" stroke="#e5e7eb"/>
<text x="72" y="99.6" text-anchor="end" font-family="Arial" font-size="12" fill="#555">3000</text>
<line x1="80" x2="950" y1="50.7" y2="50.7" stroke="#e5e7eb"/>
<text x="72" y="54.7" text-anchor="end" font-family="Arial" font-size="12" fill="#555">3500</text>
<rect x="115" y="178.1" width="92" height="186.9" fill="#7c8a99"/>
<text x="161.0" y="275.6" text-anchor="middle" font-family="Arial" font-size="11" fill="white">2081</text>
<rect x="115" y="167.3" width="92" height="10.8" fill="#d8953a"/>
<rect x="115" y="55.0" width="92" height="112.3" fill="#b23a5b"/>
<text x="161.0" y="115.2" text-anchor="middle" font-family="Arial" font-size="11" fill="white">1251</text>
<text x="161.0" y="398" text-anchor="middle" font-family="Arial" font-size="12" fill="#111">Qwen3-8B</text>
<text x="161.0" y="415" text-anchor="middle" font-family="Arial" font-size="12" fill="#111">high</text>
<rect x="252" y="65.2" width="92" height="299.8" fill="#7c8a99"/>
<text x="298.0" y="219.1" text-anchor="middle" font-family="Arial" font-size="11" fill="white">3338</text>
<rect x="252" y="62.8" width="92" height="2.4" fill="#d8953a"/>
<rect x="252" y="55.0" width="92" height="7.8" fill="#b23a5b"/>
<text x="298.0" y="398" text-anchor="middle" font-family="Arial" font-size="12" fill="#111">Qwen3-8B</text>
<text x="298.0" y="415" text-anchor="middle" font-family="Arial" font-size="12" fill="#111">low</text>
<rect x="389" y="112.1" width="92" height="252.9" fill="#7c8a99"/>
<text x="435.0" y="242.6" text-anchor="middle" font-family="Arial" font-size="11" fill="white">2816</text>
<rect x="389" y="72.6" width="92" height="39.5" fill="#d8953a"/>
<text x="435.0" y="96.4" text-anchor="middle" font-family="Arial" font-size="11" fill="white">440</text>
<rect x="389" y="55.0" width="92" height="17.6" fill="#b23a5b"/>
<text x="435.0" y="398" text-anchor="middle" font-family="Arial" font-size="12" fill="#111">RS-8B-Ins</text>
<text x="435.0" y="415" text-anchor="middle" font-family="Arial" font-size="12" fill="#111">high</text>
<rect x="526" y="56.1" width="92" height="308.9" fill="#7c8a99"/>
<text x="572.0" y="214.5" text-anchor="middle" font-family="Arial" font-size="11" fill="white">3440</text>
<rect x="526" y="55.0" width="92" height="1.1" fill="#d8953a"/>
<rect x="526" y="55.0" width="92" height="0.0" fill="#b23a5b"/>
<text x="572.0" y="398" text-anchor="middle" font-family="Arial" font-size="12" fill="#111">RS-8B-Ins</text>
<text x="572.0" y="415" text-anchor="middle" font-family="Arial" font-size="12" fill="#111">low</text>
<rect x="663" y="134.8" width="92" height="230.2" fill="#7c8a99"/>
<text x="709.0" y="253.9" text-anchor="middle" font-family="Arial" font-size="11" fill="white">2563</text>
<rect x="663" y="100.3" width="92" height="34.6" fill="#d8953a"/>
<text x="709.0" y="121.5" text-anchor="middle" font-family="Arial" font-size="11" fill="white">385</text>
<rect x="663" y="55.0" width="92" height="45.3" fill="#b23a5b"/>
<text x="709.0" y="81.6" text-anchor="middle" font-family="Arial" font-size="11" fill="white">504</text>
<text x="709.0" y="398" text-anchor="middle" font-family="Arial" font-size="12" fill="#111">RS-8B-DPO</text>
<text x="709.0" y="415" text-anchor="middle" font-family="Arial" font-size="12" fill="#111">high</text>
<rect x="800" y="58.4" width="92" height="306.6" fill="#7c8a99"/>
<text x="846.0" y="215.7" text-anchor="middle" font-family="Arial" font-size="11" fill="white">3414</text>
<rect x="800" y="55.3" width="92" height="3.1" fill="#d8953a"/>
<rect x="800" y="55.0" width="92" height="0.3" fill="#b23a5b"/>
<text x="846.0" y="398" text-anchor="middle" font-family="Arial" font-size="12" fill="#111">RS-8B-DPO</text>
<text x="846.0" y="415" text-anchor="middle" font-family="Arial" font-size="12" fill="#111">low</text>
<rect x="80" y="433" width="14" height="14" fill="#7c8a99"/><text x="100" y="445" font-family="Arial" font-size="13">unaware &lt;=8</text>
<rect x="240" y="433" width="14" height="14" fill="#d8953a"/><text x="260" y="445" font-family="Arial" font-size="13">mixed 9-23</text>
<rect x="400" y="433" width="14" height="14" fill="#b23a5b"/><text x="420" y="445" font-family="Arial" font-size="13">aware &gt;=24</text>
</svg>
